<svg width="26.000000" height="26.000000" viewBox="0 0 26 26" fill="none" xmlns="http://www.w3.org/2000/svg" xmlns:xlink="http://www.w3.org/1999/xlink">
	<desc>
			Created with Pixso.
	</desc>
	<defs/>
	<path id="Vector" d="M2.36 0C1.07 0 0 1.07 0 2.36L0 23.63C0 24.92 1.07 26 2.36 26L23.63 26C24.92 26 26 24.92 26 23.63L26 2.36C26 1.07 24.92 0 23.63 0L2.36 0ZM2.36 2.36L23.63 2.36L23.63 23.63L17.5 23.63L17.5 15.65L20.57 15.65L21.01 12.11L17.5 12.11L17.5 9.82C17.5 8.79 17.75 8.08 19.24 8.08L21.16 8.08L21.16 4.87C20.83 4.83 19.69 4.76 18.39 4.76C15.66 4.76 13.81 6.4 13.81 9.45L13.81 12.11L10.71 12.11L10.71 15.65L13.81 15.65L13.81 23.63L2.36 23.63L2.36 2.36Z" fill="#FFFFFF" fill-opacity="1.000000" fill-rule="nonzero"/>
</svg>
