<svg width="128.000000" height="128.000000" viewBox="0 0 128 128" fill="none" xmlns="http://www.w3.org/2000/svg" xmlns:xlink="http://www.w3.org/1999/xlink">
	<desc>
			Created with Pixso.
	</desc>
	<defs/>
	<path id="Vector" d="M91.5 12.62L87 19.24C87 19.24 89.45 21.15 90.62 23.87C91.63 26.26 92.37 29.06 88.5 33.74L85 37.25C73.21 27.22 61.24 26.74 61.24 26.74L59 26.74L57.74 28.74C57.74 28.74 47.54 46.09 37.74 64C32.84 72.95 28 82.06 24.63 89.25C22.93 92.84 21.61 95.97 20.75 98.5C20.33 99.76 20.03 100.82 19.87 102C19.71 103.17 19.28 104.78 21.25 106.75C23.22 108.72 24.83 108.28 26 108.12C27.17 107.96 28.24 107.67 29.5 107.25C32.03 106.39 35.16 105.06 38.75 103.37C45.93 100 55.04 95.16 64 90.25C81.89 80.43 99.25 70.25 99.25 70.25L101.25 69L101.25 66.62C101.25 66.62 100.72 54.79 90.75 43L92.12 41.5C92.46 41.16 92.78 40.92 93.12 40.62L94.12 39.75C98.84 36.12 103.31 36.27 107.25 37.25C109.98 37.94 112.56 39.13 114.87 40.75L119.87 34.5C119.87 34.5 115.43 31.08 109.12 29.5C107.72 29.17 106.3 28.96 104.87 28.87L113 20.75L107.24 15L98.87 23.37C98.67 22.43 98.37 21.51 98 20.62C95.74 15.37 91.5 12.62 91.5 12.62L91.5 12.62ZM63.24 35.24C65.87 35.5 73.39 36.59 82.37 45.62C91.37 54.68 92.48 62.14 92.74 64.74C92.09 65.14 88.67 67.2 86 68.74C84.58 65.6 82.82 62.62 80.74 59.87L74.37 64.75C77.18 68.5 78.34 71.08 79 72.75C72.73 76.3 66.44 79.8 60.12 83.25C59.73 83.45 59.39 83.67 59 83.87C58.26 81.68 57.06 79.04 54.87 76L48.37 80.62C50.34 83.37 51.31 85.64 51.75 87.12C51.82 87.37 51.82 87.43 51.87 87.62C45.89 90.82 40.11 93.9 35.37 96.12C32.9 97.28 31.15 97.92 29.37 98.62C30.08 96.84 30.71 95.09 31.87 92.62C35.1 85.73 39.89 76.75 44.74 67.87C47.09 63.59 48.87 60.39 51 56.62C52.28 57.74 53.93 59.26 55.75 61.62L62 56.74C59.97 54.05 57.62 51.62 55 49.5C59.18 42.15 62.53 36.48 63.25 35.24L63.24 35.24Z" fill="#000000" fill-opacity="1.000000" fill-rule="nonzero"/>
</svg>
