<svg width="128.000000" height="128.000000" viewBox="0 0 128 128" fill="none" xmlns="http://www.w3.org/2000/svg" xmlns:xlink="http://www.w3.org/1999/xlink">
	<desc>
			Created with Pixso.
	</desc>
	<defs/>
	<path id="Vector" d="M42 22L44.25 27.5C45.65 30.91 47.56 39.46 47.12 43.5C41.67 46.85 38.32 50.14 35.74 52.87C32.59 50.32 26.36 46 16 46L12 46L12 50C12 57.65 14.76 63.87 15.75 66C14.75 68.1 12 74.1 12 82L12 86L16 86C26.28 86 32.59 81.65 35.75 79.12C40.48 84 47.23 89.14 55.75 93C55.37 95.48 55.08 98.95 56.12 103L56.87 106L60 106C64.93 106 69.18 103.54 72.62 101.37C75.43 99.59 76.79 98.34 77.5 97.74C93.4 97.18 103.56 88.6 109 80.12C114.62 71.35 116 62.62 116 62.62L116.12 61.62L115.75 60.62C115.75 60.62 106.59 35.46 81.75 34.24C79.11 31.04 75.41 28.39 70.25 26.24C64.13 23.72 56.45 22 48 22L42 22ZM53.62 30.5C58.67 31.06 63.39 32.08 67.12 33.62C72.23 35.73 75.79 38.76 76.62 40.12L77.75 42L80 42C99.98 42 107.17 60.91 107.75 62.5C107.47 63.96 106.31 69.54 102.25 75.87C97.6 83.1 90.09 90 76 90L74.5 90L73.37 91C73.37 91 71.26 92.79 68.37 94.62C66.85 95.58 65.56 95.75 64 96.37C64.16 94.54 64 91.87 64 91.87L64.87 88.37L61.62 87.24C51.71 83.46 43.29 76.34 39 71.37L36.24 68.12L33.24 71.12C33.24 71.12 27.91 74.85 21 76.62C22.03 71.93 23.62 67.75 23.62 67.75L24.5 66L23.62 64.24C23.62 64.24 21.89 59.65 20.87 54.74C28.24 56.37 33.24 60.87 33.24 60.87L36.24 63.87L39 60.62C42.58 56.58 52.21 46.5 66.37 44.62L65.24 36.74C61.41 37.25 58.08 38.35 54.87 39.62C54.67 36.26 54.5 33.37 53.62 30.5ZM90 58C88.4 58 86.88 58.63 85.75 59.75C84.63 60.88 84 62.4 84 64C84 65.59 84.63 67.11 85.75 68.24C86.88 69.36 88.4 70 90 70C91.59 70 93.11 69.36 94.24 68.24C95.36 67.11 96 65.59 96 64C96 62.4 95.36 60.88 94.24 59.75C93.11 58.63 91.59 58 90 58Z" fill="#000000" fill-opacity="1.000000" fill-rule="nonzero"/>
</svg>
