<svg width="128.000000" height="128.000000" viewBox="0 0 128 128" fill="none" xmlns="http://www.w3.org/2000/svg" xmlns:xlink="http://www.w3.org/1999/xlink">
	<desc>
			Created with Pixso.
	</desc>
	<defs/>
	<path id="Vector" d="M48 16C37.67 16 28.48 21.75 22.12 30.5C15.76 39.25 12 51.06 12 64C12 76.93 15.76 88.75 22.12 97.5C28.48 106.25 37.67 112 48 112C80.91 112 98.46 93.17 102.75 73.37C105.76 71.2 108 67.98 108 64C108 60.01 105.76 56.79 102.74 54.62C98.24 34.32 77.25 16 48 16ZM48 24C55.34 24 62.16 28.06 67.37 35.25C72.59 42.43 76 52.64 76 64C76 75.35 72.59 85.56 67.37 92.75C62.15 99.93 55.34 104 48 104C40.65 104 33.83 99.93 28.62 92.74C23.4 85.56 20 75.35 20 64C20 52.64 23.4 42.43 28.62 35.24C33.84 28.06 40.65 24 48 24ZM73.5 30.12C85.66 36.56 93.46 47.15 95.37 57.5L95.74 59.5L97.62 60.37C99.01 61.01 100 62.35 100 64C100 65.64 99.01 66.98 97.62 67.62L95.75 68.5L95.37 70.5C93.24 82.08 86.26 93.43 72.24 99.5C72.79 98.84 73.36 98.2 73.87 97.5C80.23 88.74 84 76.93 84 64C84 51.06 80.23 39.24 73.87 30.5C73.76 30.35 73.6 30.26 73.5 30.12ZM48 32C45.13 32 42.45 33.03 40 34.75L48.12 53.87L56.37 34.87C53.83 33.02 50.96 32 48 32ZM34 41.12C30.86 46.04 28.7 52.64 28.12 60L42 60L34 41.12ZM62.25 41.5L54.12 60L67.87 60C67.31 52.81 65.27 46.39 62.24 41.5L62.25 41.5ZM28.12 68C28.67 75.18 30.71 81.6 33.74 86.5L41.87 68L28.12 68ZM53.99 68L61.99 86.87C65.13 81.95 67.29 75.35 67.87 68L53.99 68ZM47.87 74.12L39.62 93.12C42.15 94.98 45.02 96 47.99 96C50.85 96 53.54 94.96 55.99 93.24L47.87 74.12Z" fill="#000000" fill-opacity="1.000000" fill-rule="nonzero"/>
</svg>
