<svg width="28.000000" height="28.000000" viewBox="0 0 28 28" fill="none" xmlns="http://www.w3.org/2000/svg" xmlns:xlink="http://www.w3.org/1999/xlink">
	<desc>
			Created with Pixso.
	</desc>
	<defs/>
	<path id="Vector" d="M8.23 0C3.71 0 0 3.7 0 8.23L0 19.76C0 24.28 3.7 28 8.23 28L19.76 28C24.28 28 28 24.29 28 19.76L28 8.23C28 3.71 24.29 0 19.76 0L8.23 0ZM8.23 2.54L19.76 2.54C20.51 2.54 21.25 2.69 21.94 2.97C22.63 3.26 23.26 3.68 23.79 4.2C24.31 4.73 24.73 5.36 25.02 6.05C25.3 6.74 25.45 7.48 25.45 8.23L25.45 19.76C25.45 20.51 25.3 21.25 25.02 21.94C24.73 22.63 24.31 23.26 23.79 23.79C23.26 24.31 22.63 24.73 21.94 25.02C21.25 25.3 20.51 25.45 19.76 25.45L8.23 25.45C7.48 25.45 6.74 25.3 6.05 25.02C5.36 24.73 4.73 24.31 4.2 23.79C3.68 23.26 3.26 22.63 2.97 21.94C2.69 21.25 2.54 20.51 2.54 19.76C2.54 19.76 2.54 8.98 2.54 8.23C2.54 7.48 2.69 6.74 2.97 6.05C3.26 5.36 3.68 4.73 4.2 4.2C4.73 3.68 5.36 3.26 6.05 2.97C6.74 2.69 7.48 2.54 8.23 2.54ZM21.51 5.33C21.36 5.32 21.21 5.35 21.07 5.41C20.93 5.47 20.8 5.55 20.69 5.66C20.59 5.77 20.5 5.9 20.45 6.04C20.39 6.18 20.36 6.33 20.36 6.48C20.36 7.12 20.87 7.63 21.51 7.63C21.66 7.63 21.81 7.6 21.95 7.55C22.09 7.49 22.22 7.4 22.33 7.3C22.44 7.19 22.52 7.06 22.58 6.92C22.64 6.78 22.67 6.63 22.67 6.48C22.67 6.33 22.64 6.18 22.58 6.04C22.52 5.9 22.44 5.77 22.33 5.66C22.22 5.55 22.09 5.47 21.95 5.41C21.81 5.35 21.66 5.32 21.51 5.33ZM14 6.36C9.79 6.36 6.36 9.79 6.36 14C6.36 18.2 9.79 21.63 14 21.63C18.2 21.63 21.63 18.2 21.63 14C21.63 9.79 18.2 6.36 14 6.36ZM14 8.9C16.82 8.9 19.09 11.17 19.09 14C19.09 16.82 16.82 19.09 14 19.09C11.17 19.09 8.9 16.82 8.9 14C8.9 11.17 11.17 8.9 14 8.9Z" fill="#FFFFFF" fill-opacity="1.000000" fill-rule="nonzero"/>
</svg>
