<svg width="28.000000" height="22.000000" viewBox="0 0 28 22" fill="none" xmlns="http://www.w3.org/2000/svg" xmlns:xlink="http://www.w3.org/1999/xlink">
	<desc>
			Created with Pixso.
	</desc>
	<defs>
		<clipPath id="clip3690_5">
			<rect id="Icon_twitter" width="28.000000" height="22.000000" fill="white" fill-opacity="0"/>
		</clipPath>
	</defs>
	<g clip-path="url(#clip3690_5)">
		<path id="Vector" d="M28 2.6C26.95 3.05 25.83 3.35 24.7 3.48C25.89 2.78 26.79 1.69 27.22 0.41C26.09 1.05 24.86 1.51 23.57 1.75C22.79 0.94 21.76 0.37 20.64 0.13C19.52 -0.11 18.34 -0.03 17.27 0.38C16.2 0.79 15.28 1.51 14.63 2.43C13.98 3.35 13.63 4.44 13.63 5.55C13.63 5.99 13.68 6.41 13.79 6.82C11.5 6.71 9.27 6.13 7.22 5.13C5.18 4.13 3.39 2.73 1.94 1.01C1.43 1.86 1.16 2.83 1.17 3.81C1.17 5.73 2.18 7.43 3.72 8.43C2.81 8.4 1.92 8.16 1.12 7.73L1.12 7.8C1.12 9.08 1.58 10.33 2.42 11.32C3.26 12.31 4.43 12.99 5.73 13.25C4.88 13.47 3.99 13.5 3.13 13.34C3.5 14.45 4.21 15.41 5.18 16.1C6.14 16.8 7.3 17.18 8.5 17.2C7.31 18.11 5.94 18.77 4.48 19.17C3.02 19.56 1.5 19.67 0 19.5C2.62 21.13 5.68 22 8.8 22C19.37 22 25.15 13.53 25.15 6.19C25.15 5.96 25.14 5.71 25.13 5.48C26.25 4.69 27.22 3.72 28 2.61L28 2.6Z" fill="#FFFFFF" fill-opacity="1.000000" fill-rule="nonzero"/>
	</g>
</svg>
