<svg width="51" height="40" viewBox="0 0 51 40" fill="none" xmlns="http://www.w3.org/2000/svg">
<path d="M49.8782 32.1881H39.2037C38.8621 32.1881 38.5835 32.4061 38.5835 32.6734C38.5835 32.9407 38.8621 33.1587 39.2037 33.1587H49.8782C50.2198 33.1587 50.4984 32.9407 50.4984 32.6734C50.4984 32.4061 50.2198 32.1881 49.8782 32.1881Z" fill="white"/>
<path d="M49.8782 38.34H37.91C37.5684 38.34 37.2897 38.558 37.2897 38.8253C37.2897 39.0926 37.5684 39.3106 37.91 39.3106H49.8782C50.2198 39.3106 50.4984 39.0926 50.4984 38.8253C50.4984 38.558 50.2198 38.34 49.8782 38.34Z" fill="white"/>
<path d="M1.50157 35.6916H11.1533C11.4949 35.6916 11.7735 35.4736 11.7735 35.2063C11.7735 34.939 11.4949 34.721 11.1533 34.721H1.50157C1.15997 34.721 0.881355 34.939 0.881355 35.2063C0.881355 35.4755 1.15997 35.6916 1.50157 35.6916Z" fill="white"/>
<path fill-rule="evenodd" clip-rule="evenodd" d="M5.70519 0.534641C5.94501 0.441752 6.23089 0.479665 6.41986 0.627536L6.42017 0.627764C6.60672 0.77561 6.65517 1.0012 6.53404 1.18889C6.14883 1.79175 5.95501 2.4344 5.95501 3.09982C5.95501 5.47709 8.4407 7.41268 11.4933 7.41268C12.3485 7.41268 13.1747 7.25912 13.9499 6.95959C14.1898 6.8667 14.4756 6.90461 14.6646 7.05248C14.8536 7.20033 14.8996 7.42593 14.7809 7.61171C13.6253 9.42597 11.2995 10.5521 8.71198 10.5521C4.97352 10.5521 1.93305 8.18026 1.93305 5.26647C1.93305 3.24746 3.37939 1.43515 5.70519 0.534641ZM12.639 8.30706C12.261 8.35824 11.8807 8.38289 11.493 8.38289L11.4932 8.38306C7.75478 8.38306 4.7143 6.01321 4.71672 3.09942C4.71672 2.7961 4.74822 2.49844 4.81363 2.20459C3.77673 2.99891 3.17348 4.09087 3.17348 5.26626C3.17348 7.64542 5.65917 9.58101 8.7118 9.58101C10.2211 9.58101 11.619 9.11278 12.639 8.30706Z" fill="white"/>
<path fill-rule="evenodd" clip-rule="evenodd" d="M49.8807 24.4099H49.8783C49.5367 24.4099 49.2605 24.6261 49.2581 24.8934L49.2435 27.4848L26.228 0.923499C25.9979 0.656197 25.4334 0.656197 25.2008 0.923499L2.20207 27.4659L2.21661 24.7151C2.21903 24.4478 1.94042 24.2279 1.59882 24.2279H1.5964C1.2548 24.2279 0.97861 24.4441 0.976185 24.7114L0.95438 29.0527C0.951957 29.2669 1.13124 29.4546 1.39046 29.519C1.45103 29.5342 1.5116 29.5399 1.57459 29.5399C1.77568 29.5399 1.9695 29.4621 2.0882 29.3275L5.70771 25.1512V29.0564C5.70771 29.3237 5.98632 29.5418 6.32792 29.5418H20.1419C20.8469 31.3314 22.9862 32.6357 25.5106 32.6357C25.5191 32.6357 25.527 32.6352 25.5349 32.6347L25.5485 32.634L25.5591 32.6338C25.5663 32.6338 25.576 32.6357 25.5833 32.6357C25.5954 32.6357 25.6075 32.6342 25.6196 32.6328C25.6318 32.6314 25.6439 32.63 25.656 32.63C28.115 32.5807 30.1865 31.2953 30.8769 29.5418H45.1034C45.445 29.5418 45.7236 29.3237 45.7236 29.0564V25.1511L49.3431 29.3275C49.4957 29.5038 49.7768 29.5816 50.036 29.519C50.2953 29.4564 50.4745 29.2688 50.4745 29.0564L50.4988 24.8971C50.5012 24.6279 50.225 24.4118 49.881 24.4099L49.8807 24.4099ZM25.6558 31.6596L25.6488 31.66C25.6175 31.6617 25.5882 31.6634 25.5589 31.6634C24.4832 31.652 23.611 30.9695 23.611 30.1316C23.611 29.58 24.648 28.3098 25.5831 27.3524C26.5183 28.3098 27.5552 29.5799 27.5552 30.1316C27.5552 30.9563 26.7097 31.6293 25.6558 31.6596L25.6558 31.6596ZM28.7932 30.1297C28.7932 30.2738 28.769 30.4103 28.7399 30.5468L28.7399 30.5468C29.4497 29.9402 29.8858 29.1382 29.881 28.2567C29.881 26.8027 27.0609 23.7088 25.5055 22.1694C23.9526 23.7088 21.1301 26.8045 21.1301 28.2567C21.1301 29.2122 21.6413 30.0766 22.4578 30.6965C22.4045 30.5126 22.3681 30.325 22.3681 30.1297C22.3681 28.9012 24.6479 26.6926 25.1034 26.2623C25.3384 26.0405 25.8229 26.0405 26.0579 26.2623C26.5159 26.6927 28.7932 28.9013 28.7932 30.1297ZM25.9877 21.0889C25.7527 20.8671 25.2681 20.8671 25.0331 21.0889C24.5074 21.5837 19.8946 25.9969 19.8946 28.257C19.8946 28.3331 19.9008 28.4083 19.907 28.4831C19.9094 28.5127 19.9119 28.5422 19.9139 28.5717H13.6684V25.3717C14.4776 24.8598 17.1595 23.0854 19.8755 20.452C22.0802 18.3155 24.5974 15.2955 25.7384 11.8527C26.8795 15.2973 29.3967 18.3152 31.6014 20.452C34.3172 23.0852 36.9991 24.8597 37.8085 25.3717V28.5717H31.1046C31.1143 28.4675 31.124 28.3632 31.124 28.257C31.1264 25.9973 26.5135 21.5839 25.9878 21.0889H25.9877ZM39.0459 28.5715H44.4825L44.4857 23.7203L25.7168 2.06108L6.94789 23.7203V28.5715H12.4256V25.1364C12.4256 24.9847 12.5153 24.8426 12.6679 24.7516L12.6683 24.7513C12.8179 24.6596 25.1156 17.1171 25.1156 8.19016C25.1156 7.92285 25.3942 7.70484 25.7358 7.70484C26.0774 7.70484 26.356 7.92285 26.356 8.19016C26.356 17.114 38.6449 24.6541 38.8031 24.7512L38.8037 24.7516C38.9563 24.8445 39.0459 24.9866 39.0459 25.1364V28.5715Z" fill="white"/>
<path fill-rule="evenodd" clip-rule="evenodd" d="M35.1406 34.4329C35.1964 34.5542 35.1842 34.6907 35.1116 34.8064L35.112 34.8064C35.0369 34.9239 34.9085 35.013 34.7486 35.0547L32.4543 35.6481L34.6589 36.1353C34.8188 36.1714 34.9545 36.2548 35.0345 36.3685C35.1144 36.4823 35.1314 36.615 35.0853 36.7401L34.2931 38.8292C34.2132 39.0397 33.9685 39.1761 33.6996 39.1761C33.6439 39.1761 33.5857 39.1686 33.53 39.1572L25.6365 37.4112L18.3924 39.2861C18.3295 39.3032 18.264 39.3107 18.1986 39.3107C17.9418 39.3107 17.702 39.1856 17.6172 38.9847L16.7038 36.924C16.6481 36.8026 16.6602 36.6661 16.7329 36.5505C16.8055 36.433 16.9364 36.3458 17.0938 36.304L19.0078 35.8093L16.7086 35.3012C16.5487 35.2652 16.4131 35.1818 16.3331 35.068C16.2532 34.9543 16.2362 34.8216 16.2822 34.6964L17.0744 32.6073C17.1714 32.3514 17.5105 32.2054 17.8376 32.2774L25.8253 34.0443L33.4471 32.0708C33.7694 31.9874 34.1158 32.122 34.2272 32.3722L35.1406 34.4329ZM18.0898 33.341L17.6488 34.4993L21.1084 35.2651L23.725 34.5884L18.0898 33.341ZM33.7161 36.9353L33.2751 38.0936L27.7368 36.8671L30.3534 36.1903L33.7161 36.9353ZM18.0778 37.0718L18.5841 38.2149L33.7626 34.2869L33.2562 33.1437L18.0778 37.0718Z" fill="white"/>
</svg>
