<svg width="20" height="24" viewBox="0 0 20 24" fill="none" xmlns="http://www.w3.org/2000/svg">
<path d="M9.84111 23.8879C10.218 23.8485 10.5749 23.688 10.8615 23.4276L18.566 16.451C18.9543 16.1225 19.1994 15.641 19.2453 15.1187C19.2911 14.5963 19.1349 14.077 18.8125 13.6773C18.4886 13.2791 18.0271 13.0354 17.5313 13.0036C17.0354 12.9718 16.5481 13.1535 16.1812 13.5077L9.66912 19.4065L3.15699 13.5077C2.79011 13.1535 2.30286 12.9718 1.80699 13.0036C1.31111 13.0354 0.849648 13.2791 0.525766 13.6773C0.203311 14.077 0.0470972 14.5963 0.0929573 15.1187C0.138817 15.641 0.383882 16.1225 0.772273 16.451L8.47676 23.4276C8.85365 23.7698 9.34667 23.9348 9.84111 23.8879Z" fill="white"/>
<path d="M9.84111 10.8879C10.218 10.8485 10.5749 10.688 10.8615 10.4276L18.566 3.45102C18.9543 3.12248 19.1994 2.64104 19.2453 2.11868C19.2911 1.59633 19.1349 1.07704 18.8125 0.677315C18.4886 0.279144 18.0271 0.0353896 17.5313 0.00356854C17.0354 -0.0282258 16.5481 0.153457 16.1812 0.507745L9.66912 6.40646L3.15699 0.507745C2.79011 0.153465 2.30286 -0.0282138 1.80699 0.00356854C1.31111 0.0353629 0.849648 0.279121 0.525766 0.677315C0.203311 1.077 0.0470972 1.59633 0.0929573 2.11868C0.138817 2.64104 0.383882 3.12246 0.772273 3.45102L8.47676 10.4276C8.85365 10.7698 9.34667 10.9348 9.84111 10.8879Z" fill="white"/>
</svg>
