<svg width="12" height="14" viewBox="0 0 12 14" fill="none" xmlns="http://www.w3.org/2000/svg">
<path fill-rule="evenodd" clip-rule="evenodd" d="M6.01587 0.2948C7.37239 0.2948 8.68945 0.708526 9.7279 1.45986V1.45983C11.0844 2.44068 11.8823 3.83532 11.9788 5.38588C12.0712 6.91674 11.4378 8.4145 10.2417 9.49486L6.2767 13.0293C6.12311 13.1668 5.85671 13.1656 5.70312 13.0281L1.79415 9.4974C0.595323 8.41459 -0.039434 6.91561 0.0543514 5.38591C0.149483 3.83542 0.948711 2.44077 2.30384 1.45986C3.34093 0.708526 4.65938 0.2948 6.01587 0.2948ZM3.35182 5.68442C3.35182 7.01153 4.54654 8.09066 6.01587 8.09066C7.48516 8.09066 8.68127 7.01156 8.67991 5.68442C8.67991 4.35732 7.48519 3.27819 6.01587 3.27819C4.54657 3.27819 3.35182 4.35729 3.35182 5.68442Z" fill="white"/>
<path d="M6.01587 4.5116C5.29956 4.5116 4.7178 5.03705 4.7178 5.68404C4.7178 6.33103 5.29956 6.85648 6.01587 6.85648C6.73217 6.85648 7.31393 6.33103 7.31393 5.68404C7.31393 5.03705 6.73217 4.5116 6.01587 4.5116Z" fill="white"/>
</svg>
