<svg width="24" height="24" viewBox="0 0 24 24" fill="none" xmlns="http://www.w3.org/2000/svg">
<path fill-rule="evenodd" clip-rule="evenodd" d="M22.4888 23.3304C23.334 22.4376 23.334 20.9911 22.4888 20.0983L18.0243 15.3817C17.7074 15.0469 17.625 14.4375 17.8384 14.0223C17.8384 14.0223 17.8236 14.0848 17.98 13.721C18.504 12.5 18.7955 11.1429 18.7955 9.7143C18.7955 4.34823 14.6796 0 9.60028 0C4.52092 0 0.405014 4.34823 0.405014 9.7143C0.405014 15.0804 4.52092 19.4286 9.60028 19.4286C10.9483 19.4286 12.2287 19.1228 13.3823 18.5715C13.731 18.4063 13.676 18.4197 13.676 18.4197C14.0754 18.1942 14.648 18.279 14.9649 18.6139L19.4294 23.3304C20.2745 24.2232 21.6437 24.2232 22.4888 23.3304ZM14.7388 9.71428C14.7388 12.7121 12.4379 15.1429 9.60031 15.1429C6.76271 15.1429 4.46178 12.7121 4.46178 9.71428C4.46178 6.71651 6.76271 4.28571 9.60031 4.28571C12.4379 4.28571 14.7388 6.71651 14.7388 9.71428Z" fill="white"/>
</svg>
