<svg width="21" height="44" viewBox="0 0 21 44" fill="none" xmlns="http://www.w3.org/2000/svg">
<path fill-rule="evenodd" clip-rule="evenodd" d="M0.627119 20.5831C0.627119 7.50231 7.61095 0.445014 10.467 0.444458C13.3234 0.445014 20.3069 7.50186 20.3069 20.5831C20.3069 33.8 14.1972 42.7601 13.9377 43.1351L13.685 43.4997H7.24894L6.99623 43.1351C6.73689 42.76 0.627119 33.8 0.627119 20.5831ZM9.57279 2.28826V2.28819L9.57296 2.28815L9.57279 2.28826ZM9.57279 2.28826V24.0557H11.3619V2.28819C13.6519 3.87499 18.5182 9.64775 18.5182 20.5833C18.5182 24.2326 18.0239 27.5624 17.3195 30.4704C16.284 29.3263 14.3809 27.769 10.9126 26.2308C2.47957 22.4895 2.58205 17.3521 2.58892 17.1353H2.58668C3.46557 8.41861 7.53771 3.69996 9.57279 2.28826ZM2.44568 21.698L2.4459 21.6983C2.47051 22.5577 2.51524 23.4014 2.59127 24.2243C2.74756 25.1789 3.86337 29.9169 10.9281 33.1825C13.274 34.2676 14.6024 35.5419 15.3561 36.5783C15.8369 35.3908 16.3177 34.0419 16.756 32.5557L16.7558 32.5551C16.7311 32.4918 15.7507 29.9785 10.0245 27.4375C5.99499 25.6495 3.72515 23.5437 2.4459 21.6983L2.4459 21.6982L2.44568 21.698ZM11.3618 42.1113H12.5985L12.5983 42.111C12.9538 41.5415 13.6739 40.3228 14.4924 38.5693C14.318 37.9912 13.4816 35.979 10.0108 34.3749C6.85545 32.9149 4.78013 31.1771 3.40926 29.5486C4.87407 36.2104 7.5309 40.8231 8.33595 42.1113H9.57268V37.25H11.3618V42.1113Z" fill="white"/>
<path d="M10.467 0.444458L10.467 0.319458L10.467 0.319458L10.467 0.444458ZM13.9377 43.1351L14.0405 43.2063L14.0405 43.2062L13.9377 43.1351ZM13.685 43.4997V43.6247H13.7505L13.7878 43.5709L13.685 43.4997ZM7.24894 43.4997L7.14621 43.5709L7.18349 43.6247H7.24894V43.4997ZM6.99623 43.1351L6.89342 43.2062L6.8935 43.2063L6.99623 43.1351ZM9.57279 2.28819L9.54095 2.16731L9.44779 2.19185V2.28819H9.57279ZM9.57296 2.28815L9.64419 2.39086L9.54112 2.16727L9.57296 2.28815ZM9.57279 24.0557H9.44779V24.1807H9.57279V24.0557ZM11.3619 24.0557V24.1807H11.4869V24.0557H11.3619ZM11.3619 2.28819L11.4331 2.18545L11.2369 2.0495V2.28819H11.3619ZM17.3195 30.4704L17.2268 30.5543L17.3853 30.7295L17.441 30.4998L17.3195 30.4704ZM10.9126 26.2308L10.8619 26.3451L10.8619 26.3451L10.9126 26.2308ZM2.58892 17.1353L2.71386 17.1392L2.71794 17.0103H2.58892V17.1353ZM2.58668 17.1353L2.46232 17.1227L2.44845 17.2603H2.58668V17.1353ZM2.44568 21.698L2.54157 21.6178L2.34298 21.7692L2.44568 21.698ZM2.59127 24.2243L2.46649 24.2358L2.46791 24.2445L2.59127 24.2243ZM10.9281 33.1825L10.9806 33.0691L10.9805 33.069L10.9281 33.1825ZM15.3561 36.5783L15.255 36.6518L15.3874 36.834L15.4719 36.6252L15.3561 36.5783ZM16.756 32.5557L16.8759 32.5911L16.888 32.5502L16.8725 32.5104L16.756 32.5557ZM16.7558 32.5551L16.8723 32.5098L16.8722 32.5097L16.7558 32.5551ZM10.0245 27.4375L9.9738 27.5518L9.9738 27.5518L10.0245 27.4375ZM2.4459 21.6982L2.57085 21.6946L2.56959 21.6513L2.5418 21.6181L2.4459 21.6982ZM12.5985 42.1113V42.2363H12.8466L12.6989 42.0369L12.5985 42.1113ZM11.3618 42.1113H11.2368V42.2363H11.3618V42.1113ZM12.5983 42.111L12.4922 42.0448L12.4471 42.117L12.4978 42.1854L12.5983 42.111ZM14.4924 38.5693L14.6057 38.6222L14.6259 38.5789L14.6121 38.5332L14.4924 38.5693ZM10.0108 34.3749L9.95833 34.4883L9.95837 34.4883L10.0108 34.3749ZM3.40926 29.5486L3.50489 29.4681L3.28718 29.5755L3.40926 29.5486ZM8.33595 42.1113L8.22995 42.1775L8.26667 42.2363H8.33595V42.1113ZM9.57268 42.1113V42.2363H9.69768V42.1113H9.57268ZM9.57268 37.25V37.125H9.44768V37.25H9.57268ZM11.3618 37.25H11.4868V37.125H11.3618V37.25ZM10.467 0.319458C9.70932 0.319606 8.7091 0.783076 7.64537 1.6552C6.57671 2.53137 5.42727 3.8334 4.36974 5.54293C2.25416 8.96282 0.502119 14.0202 0.502119 20.5831H0.752119C0.752119 14.0652 2.492 9.05356 4.58235 5.67445C5.62777 3.98449 6.7598 2.70454 7.80387 1.84853C8.85287 0.988488 9.79665 0.569589 10.467 0.569458L10.467 0.319458ZM20.4319 20.5831C20.4319 14.02 18.6799 8.9626 16.5644 5.54277C15.5069 3.83326 14.3575 2.53127 13.2888 1.65514C12.225 0.783043 11.2248 0.319606 10.467 0.319458L10.467 0.569458C11.1374 0.569589 12.0813 0.988466 13.1303 1.84847C14.1744 2.70445 15.3064 3.98435 16.3518 5.67429C18.4421 9.05333 20.1819 14.065 20.1819 20.5831H20.4319ZM14.0405 43.2062C14.3061 42.8223 20.4319 33.8369 20.4319 20.5831H20.1819C20.1819 33.7632 14.0882 42.698 13.8349 43.064L14.0405 43.2062ZM13.7878 43.5709L14.0405 43.2063L13.835 43.0639L13.5823 43.4285L13.7878 43.5709ZM7.24894 43.6247H13.685V43.3747H7.24894V43.6247ZM6.8935 43.2063L7.14621 43.5709L7.35168 43.4285L7.09897 43.0639L6.8935 43.2063ZM0.502119 20.5831C0.502119 33.8369 6.62791 42.8222 6.89342 43.2062L7.09905 43.064C6.84587 42.6978 0.752119 33.7632 0.752119 20.5831H0.502119ZM9.44779 2.28819V2.28826H9.69779V2.28819H9.44779ZM9.54112 2.16727L9.54095 2.16731L9.60463 2.40907L9.6048 2.40902L9.54112 2.16727ZM9.64403 2.39098L9.64419 2.39086L9.50173 2.18543L9.50156 2.18555L9.64403 2.39098ZM9.69779 24.0557V2.28826H9.44779V24.0557H9.69779ZM11.3619 23.9307H9.57279V24.1807H11.3619V23.9307ZM11.2369 2.28819V24.0557H11.4869V2.28819H11.2369ZM18.6432 20.5833C18.6432 9.61042 13.7597 3.79761 11.4331 2.18545L11.2907 2.39094C13.5441 3.95237 18.3932 9.68508 18.3932 20.5833H18.6432ZM17.441 30.4998C18.1474 27.5837 18.6432 24.2439 18.6432 20.5833H18.3932C18.3932 24.2213 17.9005 27.5412 17.198 30.441L17.441 30.4998ZM10.8619 26.3451C14.3171 27.8775 16.205 29.4252 17.2268 30.5543L17.4121 30.3865C16.3631 29.2274 14.4448 27.6606 10.9632 26.1165L10.8619 26.3451ZM2.46398 17.1313C2.46003 17.2562 2.43528 18.6194 3.47755 20.4239C4.52031 22.2292 6.62488 24.4653 10.8619 26.3451L10.9633 26.1166C6.76726 24.255 4.70658 22.0518 3.69404 20.2988C2.68102 18.5451 2.71095 17.2312 2.71386 17.1392L2.46398 17.1313ZM2.58668 17.2603H2.58892V17.0103H2.58668V17.2603ZM9.50154 2.18556C7.43376 3.61994 3.34453 8.37304 2.46232 17.1227L2.71105 17.1478C3.58661 8.46418 7.64166 3.77999 9.64404 2.39097L9.50154 2.18556ZM2.54861 21.627L2.54838 21.6267L2.34298 21.7692L2.3432 21.7695L2.54861 21.627ZM2.32096 21.7019C2.34561 22.5632 2.39046 23.4096 2.4668 24.2358L2.71574 24.2128C2.64001 23.3931 2.5954 22.5521 2.57085 21.6947L2.32096 21.7019ZM2.46791 24.2445C2.62944 25.2311 3.76575 30.0094 10.8756 33.296L10.9805 33.069C3.96099 29.8243 2.86568 25.1267 2.71463 24.2041L2.46791 24.2445ZM10.8756 33.296C13.2032 34.3725 14.5145 35.6335 15.255 36.6518L15.4572 36.5048C14.6904 35.4503 13.3449 34.1626 10.9806 33.0691L10.8756 33.296ZM15.4719 36.6252C15.9542 35.4341 16.4364 34.0813 16.8759 32.5911L16.6361 32.5204C16.199 34.0024 15.7195 35.3475 15.2402 36.5314L15.4719 36.6252ZM16.8725 32.5104L16.8723 32.5098L16.6393 32.6005L16.6395 32.6011L16.8725 32.5104ZM16.8722 32.5097C16.8338 32.4111 15.8268 29.8755 10.0752 27.3233L9.9738 27.5518C15.6747 30.0815 16.6284 32.5725 16.6393 32.6006L16.8722 32.5097ZM10.0752 27.3233C6.06363 25.5432 3.81305 23.4511 2.54864 21.6271L2.34317 21.7695C3.63725 23.6363 5.92635 25.7557 9.9738 27.5518L10.0752 27.3233ZM2.32096 21.7019L2.32096 21.7019L2.57085 21.6946L2.57085 21.6946L2.32096 21.7019ZM2.34979 21.7782L2.35001 21.7784L2.5418 21.6181L2.54157 21.6178L2.34979 21.7782ZM12.5985 41.9863H11.3618V42.2363H12.5985V41.9863ZM12.4978 42.1854L12.498 42.1857L12.6989 42.0369L12.6987 42.0366L12.4978 42.1854ZM14.3792 38.5164C13.5631 40.2646 12.8456 41.4789 12.4922 42.0448L12.7043 42.1772C13.0621 41.6041 13.7847 40.3809 14.6057 38.6222L14.3792 38.5164ZM9.95837 34.4883C13.3956 36.077 14.2083 38.0603 14.3728 38.6054L14.6121 38.5332C14.4277 37.9221 13.5677 35.8811 10.0633 34.2614L9.95837 34.4883ZM3.31363 29.6291C4.69679 31.2722 6.78706 33.021 9.95833 34.4883L10.0633 34.2614C6.92385 32.8089 4.86346 31.082 3.50489 29.4681L3.31363 29.6291ZM8.44195 42.0451C7.64173 40.7646 4.99214 36.1653 3.53135 29.5218L3.28718 29.5755C4.756 36.2555 7.42006 40.8816 8.22995 42.1775L8.44195 42.0451ZM9.57268 41.9863H8.33595V42.2363H9.57268V41.9863ZM9.44768 37.25V42.1113H9.69768V37.25H9.44768ZM11.3618 37.125H9.57268V37.375H11.3618V37.125ZM11.4868 42.1113V37.25H11.2368V42.1113H11.4868Z" fill="black"/>
</svg>
