<svg width="76" height="47" viewBox="0 0 76 47" fill="currentColor" xmlns="http://www.w3.org/2000/svg">
<path fill-rule="evenodd" clip-rule="evenodd" d="M75.4816 42.8611C75.4695 42.8896 75.4544 42.9181 75.4362 42.9442L75.4368 42.9438C75.4186 42.9723 75.4004 42.9984 75.3641 43.0174C75.3525 43.0316 75.341 43.0444 75.3294 43.0569C75.3198 43.0674 75.3101 43.0777 75.3005 43.0886C75.2762 43.1123 75.249 43.1384 75.2217 43.1621C75.1975 43.1811 75.1732 43.2001 75.146 43.2191C75.1157 43.2428 75.0824 43.2642 75.049 43.2832C75.0218 43.2974 74.9884 43.314 74.9582 43.3282C74.9218 43.3425 74.8885 43.3591 74.8491 43.3733C74.8369 43.3781 74.8244 43.3824 74.8116 43.3863C74.7977 43.3907 74.7835 43.3947 74.7692 43.3988L74.7691 43.3988L74.7687 43.3989C74.7572 43.4022 74.7456 43.4054 74.734 43.4089C74.7259 43.4113 74.7182 43.414 74.7104 43.4166C74.6949 43.4219 74.6794 43.4271 74.6613 43.4303C74.6492 43.4327 74.6401 43.4303 74.628 43.4327C74.534 43.4517 74.4371 43.4635 74.3371 43.4635C74.2008 43.4635 74.1524 43.4801 74.1524 43.4801C74.0966 43.5307 73.9954 43.7839 73.9313 43.9442L73.9251 43.9595C73.6888 44.5529 73.1951 45.7869 71.1988 45.7869C69.4912 45.7869 68.6429 44.8987 68.0223 44.2489L68.0179 44.2443C67.4363 43.6296 67.2151 43.4635 66.7789 43.4635C66.3427 43.4635 66.1245 43.6296 65.5399 44.2419L65.5355 44.2464C64.9149 44.8963 64.0666 45.7845 62.356 45.7845C60.6484 45.7845 59.8002 44.8963 59.1796 44.2464L59.1752 44.2419C58.5935 43.6296 58.3724 43.4635 57.9361 43.4635C57.5029 43.4635 57.2818 43.6296 56.6971 44.2443C56.0791 44.8946 55.2278 45.7869 53.5163 45.7869C51.8056 45.7869 50.9574 44.8987 50.3368 44.2489L50.3324 44.2443C49.7508 43.632 49.5296 43.4659 49.0934 43.4659C48.6572 43.4659 48.439 43.632 47.8544 44.2443C47.2364 44.8946 46.3881 45.7869 44.6735 45.7869C42.9659 45.7869 42.1177 44.8987 41.4971 44.2489L41.4927 44.2443C40.911 43.632 40.6899 43.4659 40.2537 43.4659C39.8205 43.4659 39.5993 43.6321 39.0146 44.2467C38.3966 44.897 37.5454 45.7894 35.8338 45.7894C34.1262 45.7894 33.278 44.9012 32.6573 44.2513L32.653 44.2467C32.0713 43.6345 31.8502 43.4683 31.4139 43.4683C30.9807 43.4683 30.7596 43.6345 30.1749 44.2491C29.5569 44.8994 28.7056 45.7918 26.9941 45.7918C26.4518 45.7918 25.958 45.6185 25.6096 45.3053C24.7644 44.5506 24.9341 43.2643 25.2825 41.2281L25.2884 41.1928C25.4128 40.4561 25.6026 39.3326 25.5399 38.786C23.2771 39.1323 20.0659 42.6853 18.3998 45.2698C18.1938 45.5926 17.7728 45.7919 17.3184 45.7919C17.2941 45.7919 17.2699 45.7919 17.2457 45.7895C16.764 45.7682 16.3429 45.5238 16.1793 45.1678C15.9006 44.5645 13.5196 39.1941 15.9946 36.2228C16.9215 35.1121 18.4241 34.4737 20.3447 34.3764C22.0138 34.291 22.7772 33.9397 22.9227 33.662C23.0196 33.4769 22.8651 33.1613 22.5258 32.8599C21.623 32.0553 19.6055 31.4098 17.3093 31.8987C14.1252 32.5731 10.5567 35.9169 9.35408 39.3534C8.93298 40.5614 8.47853 42.797 10.1992 44.1806C10.6657 44.5579 10.6536 45.1583 10.175 45.5238C9.69332 45.8893 8.92997 45.8821 8.46042 45.5048C6.56101 43.9789 6.04905 41.6152 7.01541 38.8527C8.26631 35.2738 12.2228 31.0091 16.6759 30.0669C19.993 29.3645 22.9163 30.3327 24.3462 31.6072C25.3368 32.4876 25.6337 33.501 25.1641 34.3886C24.7552 35.16 23.6161 36.114 20.502 36.273C19.3418 36.3324 18.5329 36.6575 18.027 37.2626C17.0062 38.4872 17.2424 40.6587 17.7059 42.3912C19.5236 40.1057 22.7136 36.7856 26.0155 36.8663C26.5487 36.8805 27.0304 37.0609 27.3696 37.3765C27.7089 37.6898 27.8755 38.0956 27.9361 38.5987C30.1657 37.443 33.4196 36.299 39.8418 35.7912C32.8801 13.6963 45.9671 1.25815 46.5609 0.709935C46.5659 0.705973 46.571 0.702838 46.5758 0.699839C46.5826 0.695653 46.5889 0.691733 46.5942 0.686203C46.6305 0.655349 46.6669 0.629243 46.7063 0.603138C46.7305 0.584152 46.7547 0.567539 46.782 0.5533C46.8192 0.533858 46.8564 0.517602 46.8953 0.500617L46.9213 0.489221C46.9456 0.477354 46.9698 0.465488 46.9971 0.455995C47.0546 0.437009 47.1122 0.42277 47.1728 0.410903C47.1869 0.409322 47.201 0.405633 47.2152 0.401944L47.2152 0.401939C47.2223 0.400093 47.2293 0.398247 47.2364 0.396664C47.3182 0.382424 47.403 0.375305 47.4909 0.375305L47.6696 0.380051C48.027 0.380051 48.3633 0.501088 48.5935 0.714679C49.1873 1.26026 62.2104 13.6349 55.3732 35.6228C73.252 36.4438 75.4392 42.0328 75.524 42.2773C75.5256 42.282 75.5263 42.2873 75.5271 42.2927C75.5274 42.2953 75.5278 42.2978 75.5283 42.3003C75.5287 42.303 75.5293 42.3057 75.5301 42.3081L75.5483 42.4007C75.5543 42.4339 75.5604 42.4671 75.5604 42.5004C75.5604 42.5051 75.5612 42.5098 75.5619 42.5146C75.5627 42.5193 75.5634 42.5241 75.5634 42.5288C75.5634 42.5459 75.561 42.5611 75.5583 42.5777L75.5574 42.5834C75.5543 42.6166 75.5513 42.6522 75.5422 42.6855C75.5362 42.7139 75.5271 42.7423 75.5181 42.7707L75.518 42.7709C75.5059 42.8018 75.4968 42.8326 75.4816 42.8611ZM48.702 38.5465H51.8343C58.7324 20.8735 52.2433 8.95949 48.702 4.22958V38.5465ZM46.2785 4.47868V38.5465H43.3249C36.5603 21.2173 42.7099 9.37919 46.2785 4.47868ZM71.6191 43.42L71.6253 43.4045L71.6243 43.4046C71.7667 43.0486 72.009 42.4648 72.6058 42.0542C71.2641 40.7252 67.0322 37.9959 54.7481 37.4999C54.4815 38.2523 54.1937 39.0141 53.8787 39.7877C53.7181 40.1817 53.2516 40.4498 52.7245 40.4498H42.4311C41.904 40.4498 41.4375 40.1817 41.2769 39.7877C40.9861 39.0663 40.7195 38.3566 40.4681 37.6566C32.6795 38.2309 29.8925 39.7616 27.7629 41.0527C27.7534 41.1082 27.7444 41.1635 27.7354 41.2192C27.7212 41.3062 27.7068 41.3944 27.6902 41.4869C27.5721 42.1799 27.3903 43.2479 27.4267 43.8175C27.6478 43.7154 27.872 43.5066 28.2355 43.1221L28.2398 43.1176C28.8605 42.4677 29.7088 41.5795 31.4194 41.5795C33.127 41.5795 33.9752 42.4677 34.5958 43.1175L34.6002 43.1221C35.1819 43.7344 35.403 43.9005 35.8392 43.9005C36.2755 43.9005 36.4936 43.7344 37.0783 43.1221L37.0826 43.1176C37.7032 42.4677 38.5515 41.5795 40.2621 41.5795C41.9697 41.5795 42.8179 42.4677 43.4386 43.1175L43.443 43.1221C44.0277 43.7344 44.2488 43.9005 44.682 43.9005C45.1182 43.9005 45.3364 43.7344 45.921 43.1221C46.539 42.4719 47.3873 41.5795 49.1019 41.5795C50.8095 41.5795 51.6577 42.4677 52.2783 43.1175L52.2827 43.1221C52.8674 43.7368 53.0885 43.9029 53.5247 43.9029C53.961 43.9029 54.1791 43.7368 54.7638 43.1245L54.7681 43.12C55.3887 42.4701 56.237 41.5819 57.9476 41.5819C59.6552 41.5819 60.5035 42.4701 61.1241 43.12L61.1285 43.1245C61.7101 43.7368 61.9313 43.9029 62.3675 43.9029C62.8037 43.9029 63.0249 43.7368 63.6096 43.1221C64.2276 42.4719 65.0788 41.5795 66.7904 41.5795C68.501 41.5795 69.3493 42.4677 69.9699 43.1175L69.9742 43.1221C70.5589 43.7344 70.7801 43.9005 71.2133 43.9005C71.3496 43.9005 71.3981 43.8839 71.3981 43.8839C71.4538 43.8333 71.5549 43.5804 71.6191 43.42Z" fill="white"/>
<path d="M75.4362 42.9442L75.0258 42.6585L75.7071 43.3644L75.4362 42.9442ZM75.4816 42.8611L75.0402 42.6263L75.03 42.6454L75.0215 42.6654L75.4816 42.8611ZM75.4368 42.9438L75.8583 43.2128L75.1658 42.5236L75.4368 42.9438ZM75.3641 43.0174L75.1326 42.5742L75.0411 42.622L74.976 42.7021L75.3641 43.0174ZM75.3294 43.0569L75.6974 43.3955L75.6975 43.3954L75.3294 43.0569ZM75.3005 43.0886L75.6503 43.4458L75.6622 43.4342L75.6733 43.4217L75.3005 43.0886ZM75.2217 43.1621L75.53 43.5557L75.5402 43.5478L75.55 43.5392L75.2217 43.1621ZM75.146 43.2191L74.8602 42.8088L74.8487 42.8168L74.8376 42.8255L75.146 43.2191ZM75.049 43.2832L75.2805 43.7264L75.2886 43.7221L75.2965 43.7176L75.049 43.2832ZM74.9582 43.3282L75.1405 43.7938L75.1559 43.7878L75.1708 43.7808L74.9582 43.3282ZM74.8491 43.3733L74.679 42.903L74.6667 42.9078L74.8491 43.3733ZM74.8116 43.3863L74.6629 42.9089L74.6629 42.909L74.8116 43.3863ZM74.7692 43.3988L74.6328 42.9177L74.6219 42.9208L74.611 42.9244L74.7692 43.3988ZM74.7691 43.3988L74.9029 43.8805L74.9152 43.8771L74.9272 43.8731L74.7691 43.3988ZM74.7687 43.3989L74.6349 42.9171L74.6322 42.9179L74.7687 43.3989ZM74.734 43.4089L74.8748 43.8887L74.8783 43.8877L74.734 43.4089ZM74.7104 43.4166L74.5492 42.9433L74.5492 42.9433L74.7104 43.4166ZM74.6613 43.4303L74.5755 42.9376L74.5652 42.9396L74.6613 43.4303ZM74.628 43.4327L74.5319 42.942L74.5289 42.9426L74.628 43.4327ZM74.1524 43.4801L73.9902 43.0071L73.8927 43.0406L73.8164 43.1098L74.1524 43.4801ZM73.9313 43.9442L73.467 43.7586L73.467 43.7587L73.9313 43.9442ZM73.9251 43.9595L73.4609 43.774L73.4606 43.7745L73.9251 43.9595ZM68.0223 44.2489L68.3839 43.9036L68.3839 43.9035L68.0223 44.2489ZM68.0179 44.2443L67.6548 44.588L67.6564 44.5896L68.0179 44.2443ZM65.5399 44.2419L65.9014 44.5872L65.9015 44.5872L65.5399 44.2419ZM65.5355 44.2464L65.174 43.901L65.1739 43.9011L65.5355 44.2464ZM59.1796 44.2464L59.5411 43.9011L59.5411 43.9011L59.1796 44.2464ZM59.1752 44.2419L58.8127 44.5862L58.8136 44.5872L59.1752 44.2419ZM56.6971 44.2443L56.3348 43.8997L56.3347 43.8998L56.6971 44.2443ZM50.3368 44.2489L49.9752 44.5942L49.9752 44.5942L50.3368 44.2489ZM50.3324 44.2443L49.9699 44.5887L49.9708 44.5896L50.3324 44.2443ZM47.8544 44.2443L47.4927 43.899L47.4919 43.8998L47.8544 44.2443ZM41.4971 44.2489L41.8587 43.9036L41.8587 43.9035L41.4971 44.2489ZM41.4927 44.2443L41.1302 44.5887L41.1311 44.5896L41.4927 44.2443ZM39.0146 44.2467L38.6523 43.9021L38.6522 43.9023L39.0146 44.2467ZM32.6573 44.2513L33.0189 43.906L33.0188 43.9059L32.6573 44.2513ZM32.653 44.2467L32.2905 44.5911L32.2915 44.5921L32.653 44.2467ZM30.1749 44.2491L29.8126 43.9045L29.8125 43.9047L30.1749 44.2491ZM25.6096 45.3053L25.944 44.9335L25.9426 44.9323L25.6096 45.3053ZM25.2825 41.2281L25.7753 41.3124L25.7755 41.3113L25.2825 41.2281ZM25.2884 41.1928L24.7954 41.1096L24.7954 41.1096L25.2884 41.1928ZM25.5399 38.786L26.0367 38.7291L25.9776 38.2132L25.4643 38.2918L25.5399 38.786ZM18.3998 45.2698L17.9796 44.9989L17.9783 45.0008L18.3998 45.2698ZM17.2457 45.7895L17.2944 45.2919L17.2811 45.2906L17.2678 45.29L17.2457 45.7895ZM16.1793 45.1678L16.6337 44.959L16.6333 44.9581L16.1793 45.1678ZM15.9946 36.2228L15.6107 35.9024L15.6104 35.9028L15.9946 36.2228ZM20.3447 34.3764L20.37 34.8757L20.3703 34.8757L20.3447 34.3764ZM22.9227 33.662L23.3656 33.894L23.3656 33.894L22.9227 33.662ZM22.5258 32.8599L22.1932 33.2331L22.1937 33.2337L22.5258 32.8599ZM17.3093 31.8987L17.4129 32.3879L17.4134 32.3878L17.3093 31.8987ZM9.35408 39.3534L8.88214 39.1882L8.88194 39.1888L9.35408 39.3534ZM10.1992 44.1806L10.5137 43.7918L10.5125 43.7909L10.1992 44.1806ZM10.175 45.5238L10.4772 45.9221L10.4784 45.9212L10.175 45.5238ZM8.46042 45.5048L8.77363 45.1151L8.77356 45.115L8.46042 45.5048ZM7.01541 38.8527L7.48737 39.0178L7.48741 39.0177L7.01541 38.8527ZM16.6759 30.0669L16.7794 30.5561L16.7795 30.5561L16.6759 30.0669ZM24.3462 31.6072L24.0135 31.9804L24.014 31.9809L24.3462 31.6072ZM25.1641 34.3886L25.6059 34.6228L25.6061 34.6224L25.1641 34.3886ZM20.502 36.273L20.4765 35.7736L20.4765 35.7737L20.502 36.273ZM18.027 37.2626L17.6434 36.942L17.643 36.9425L18.027 37.2626ZM17.7059 42.3912L17.2229 42.5204L17.4794 43.4793L18.0973 42.7025L17.7059 42.3912ZM26.0155 36.8663L26.0289 36.3664L26.0277 36.3664L26.0155 36.8663ZM27.3696 37.3765L27.0291 37.7426L27.0305 37.7439L27.3696 37.3765ZM27.9361 38.5987L27.4397 38.6585L27.5259 39.3745L28.1662 39.0426L27.9361 38.5987ZM39.8418 35.7912L39.8812 36.2896L40.5074 36.2401L40.3186 35.6409L39.8418 35.7912ZM46.5609 0.709935L46.2525 0.316322L46.2366 0.328824L46.2217 0.342578L46.5609 0.709935ZM46.5758 0.699839L46.3124 0.274876L46.3123 0.274883L46.5758 0.699839ZM46.5942 0.686203L46.2706 0.305003L46.2509 0.321745L46.233 0.340434L46.5942 0.686203ZM46.7063 0.603138L46.9825 1.01988L46.999 1.00894L47.0146 0.996736L46.7063 0.603138ZM46.782 0.5533L47.0135 0.996503L47.0135 0.996501L46.782 0.5533ZM46.8953 0.500617L47.0955 0.95882L47.0959 0.958604L46.8953 0.500617ZM46.9213 0.489221L47.122 0.947207L47.1317 0.942947L47.1412 0.938277L46.9213 0.489221ZM46.9971 0.455995L46.8404 -0.0189017L46.8327 -0.0161994L46.9971 0.455995ZM47.1728 0.410903L47.1172 -0.0859964L47.0968 -0.0837159L47.0767 -0.0797738L47.1728 0.410903ZM47.2152 0.401944L47.3415 0.885729L47.3697 0.878357L47.3969 0.867749L47.2152 0.401944ZM47.2152 0.401939L47.0888 -0.0818317L47.0606 -0.0744636L47.0335 -0.0638665L47.2152 0.401939ZM47.2364 0.396664L47.1506 -0.0959254L47.1388 -0.0938729L47.1272 -0.0912589L47.2364 0.396664ZM47.4909 0.375305L47.5041 -0.124695H47.4909V0.375305ZM47.6696 0.380051L47.6563 0.880051H47.6696V0.380051ZM48.5935 0.714679L48.2535 1.08124L48.2552 1.08285L48.5935 0.714679ZM55.3732 35.6228L54.8957 35.4743L54.7035 36.0925L55.3503 36.1222L55.3732 35.6228ZM75.524 42.2773L76.0006 42.1254L75.9964 42.1134L75.524 42.2773ZM75.5271 42.2927L75.032 42.3628L75.0321 42.3633L75.5271 42.2927ZM75.5283 42.3003L75.0361 42.3887L75.0362 42.3892L75.5283 42.3003ZM75.5301 42.3081L76.0207 42.2118L76.0152 42.1837L76.0065 42.1564L75.5301 42.3081ZM75.5483 42.4007L76.0402 42.311L76.0389 42.3043L75.5483 42.4007ZM75.5619 42.5146L75.0681 42.5932L75.0683 42.594L75.5619 42.5146ZM75.5583 42.5777L75.0647 42.498L75.0647 42.4982L75.5583 42.5777ZM75.5574 42.5834L75.0637 42.5039L75.061 42.5209L75.0594 42.538L75.5574 42.5834ZM75.5422 42.6855L75.0599 42.5536L75.0562 42.5674L75.0532 42.5814L75.5422 42.6855ZM75.5181 42.7707L75.0417 42.6187L75.0413 42.6201L75.5181 42.7707ZM75.518 42.7709L75.9834 42.9537L75.9896 42.9378L75.9948 42.9215L75.518 42.7709ZM51.8343 38.5465V39.0465H52.1759L52.3001 38.7283L51.8343 38.5465ZM48.702 38.5465H48.202V39.0465H48.702V38.5465ZM48.702 4.22958L49.1022 3.92992L48.202 2.7275V4.22958H48.702ZM46.2785 38.5465V39.0465H46.7785V38.5465H46.2785ZM46.2785 4.47868H46.7785V2.94268L45.8743 4.18435L46.2785 4.47868ZM43.3249 38.5465L42.8591 38.7283L42.9833 39.0465H43.3249V38.5465ZM71.6253 43.4045L72.0895 43.5902L72.396 42.8236L71.5747 42.9071L71.6253 43.4045ZM71.6191 43.42L71.1548 43.2344L71.1548 43.2344L71.6191 43.42ZM71.6243 43.4046L71.16 43.2189L70.8535 43.9855L71.6748 43.902L71.6243 43.4046ZM72.6058 42.0542L72.8892 42.4661L73.3866 42.1239L72.9577 41.699L72.6058 42.0542ZM54.7481 37.4999L54.7683 37.0003L54.3999 36.9855L54.2768 37.3329L54.7481 37.4999ZM53.8787 39.7877L54.3417 39.9765L54.3418 39.9763L53.8787 39.7877ZM41.2769 39.7877L40.8132 39.9747L40.8139 39.9764L41.2769 39.7877ZM40.4681 37.6566L40.9387 37.4876L40.8102 37.13L40.4313 37.1579L40.4681 37.6566ZM27.7629 41.0527L27.5037 40.6251L27.3083 40.7435L27.27 40.9688L27.7629 41.0527ZM27.7354 41.2192L28.2289 41.2996L28.2289 41.2996L27.7354 41.2192ZM27.6902 41.4869L27.198 41.3986L27.1973 41.4029L27.6902 41.4869ZM27.4267 43.8175L26.9277 43.8493L26.9741 44.5769L27.6361 44.2715L27.4267 43.8175ZM28.2355 43.1221L27.8739 42.7768L27.8722 42.7786L28.2355 43.1221ZM28.2398 43.1176L27.8783 42.7723L27.8782 42.7723L28.2398 43.1176ZM34.5958 43.1175L34.2342 43.4629L34.2343 43.4629L34.5958 43.1175ZM34.6002 43.1221L34.9627 42.7777L34.9617 42.7767L34.6002 43.1221ZM37.0783 43.1221L36.7167 42.7768L36.7166 42.7768L37.0783 43.1221ZM37.0826 43.1176L36.721 42.7723L36.721 42.7723L37.0826 43.1176ZM43.4386 43.1175L43.077 43.4629L43.077 43.4629L43.4386 43.1175ZM43.443 43.1221L43.8046 42.7768L43.8045 42.7768L43.443 43.1221ZM45.921 43.1221L46.2826 43.4674L46.2834 43.4666L45.921 43.1221ZM52.2783 43.1175L51.9167 43.4629L51.9167 43.4629L52.2783 43.1175ZM52.2827 43.1221L52.645 42.7775L52.6443 42.7768L52.2827 43.1221ZM54.7638 43.1245L54.4022 42.7792L54.4022 42.7792L54.7638 43.1245ZM54.7681 43.12L55.1296 43.4654L55.1297 43.4654L54.7681 43.12ZM61.1241 43.12L61.4857 42.7746L61.4857 42.7746L61.1241 43.12ZM61.1285 43.1245L61.491 42.7802L61.4901 42.7792L61.1285 43.1245ZM63.6096 43.1221L63.9718 43.4667L63.972 43.4666L63.6096 43.1221ZM69.9699 43.1175L70.3315 42.7722L70.3315 42.7722L69.9699 43.1175ZM69.9742 43.1221L70.3358 42.7768L70.3358 42.7768L69.9742 43.1221ZM71.3981 43.8839L71.5602 44.3569L71.6577 44.3235L71.734 44.2542L71.3981 43.8839ZM75.8466 43.2298C75.8872 43.1715 75.9183 43.112 75.9417 43.0568L75.0215 42.6654C75.0213 42.6659 75.0213 42.6658 75.0218 42.6649C75.0223 42.6641 75.0235 42.6619 75.0258 42.6585L75.8466 43.2298ZM75.1658 42.5236L75.1653 42.5239L75.7071 43.3644L75.7077 43.364L75.1658 42.5236ZM75.5956 43.4605C75.7548 43.3773 75.8318 43.2543 75.8583 43.2128L75.0153 42.6748C75.0076 42.6869 75.018 42.669 75.0378 42.6472C75.062 42.6206 75.0941 42.5943 75.1326 42.5742L75.5956 43.4605ZM75.6975 43.3954C75.7109 43.3808 75.7308 43.359 75.7521 43.3326L74.976 42.7021C74.9743 42.7042 74.971 42.708 74.9614 42.7185L75.6975 43.3954ZM75.6733 43.4217C75.6797 43.4145 75.6839 43.4102 75.6974 43.3955L74.9615 42.7184C74.9557 42.7247 74.9405 42.741 74.9277 42.7554L75.6733 43.4217ZM75.55 43.5392C75.5885 43.5058 75.624 43.4715 75.6503 43.4458L74.9507 42.7313C74.9284 42.753 74.9095 42.771 74.8934 42.785L75.55 43.5392ZM75.4317 43.6294C75.4722 43.6012 75.507 43.5738 75.53 43.5557L74.9134 42.7685C74.8879 42.7884 74.8743 42.799 74.8602 42.8088L75.4317 43.6294ZM75.2965 43.7176C75.3445 43.6903 75.3996 43.6556 75.4543 43.6127L74.8376 42.8255C74.8318 42.8301 74.8202 42.8381 74.8015 42.8487L75.2965 43.7176ZM75.1708 43.7808C75.2079 43.7633 75.2475 43.7436 75.2805 43.7264L74.8176 42.84C74.7961 42.8512 74.769 42.8647 74.7455 42.8757L75.1708 43.7808ZM75.0191 43.8435C75.0542 43.8309 75.0842 43.818 75.1036 43.8096C75.1265 43.7996 75.133 43.7968 75.1405 43.7938L74.7758 42.8627C74.747 42.874 74.7186 42.8865 74.7059 42.892C74.6897 42.8991 74.6834 42.9016 74.6791 42.9031L75.0191 43.8435ZM74.9603 43.8637C74.9804 43.8575 75.0049 43.8493 75.0315 43.8389L74.6667 42.9078C74.669 42.9069 74.6684 42.9073 74.6629 42.9089L74.9603 43.8637ZM74.9055 43.8798C74.9186 43.8761 74.9392 43.8703 74.9604 43.8637L74.6629 42.909C74.6562 42.911 74.6483 42.9133 74.6328 42.9177L74.9055 43.8798ZM74.9272 43.8731L74.9273 43.8731L74.611 42.9244L74.611 42.9244L74.9272 43.8731ZM74.9025 43.8807L74.9029 43.8805L74.6353 42.917L74.6349 42.9171L74.9025 43.8807ZM74.8783 43.8877C74.8853 43.8855 74.893 43.8834 74.9051 43.8799L74.6322 42.9179C74.6213 42.921 74.6058 42.9254 74.5896 42.9302L74.8783 43.8877ZM74.8716 43.8899C74.8759 43.8884 74.8772 43.888 74.8781 43.8877C74.8787 43.8875 74.8773 43.888 74.8748 43.8887L74.5932 42.9292C74.5732 42.935 74.5554 42.9412 74.5492 42.9433L74.8716 43.8899ZM74.747 43.9229C74.8088 43.9121 74.859 43.8942 74.8716 43.8899L74.5492 42.9433C74.5449 42.9447 74.5436 42.9452 74.5427 42.9455C74.5421 42.9457 74.5434 42.9452 74.5459 42.9445C74.5513 42.9429 74.5617 42.9401 74.5755 42.9377L74.747 43.9229ZM74.7241 43.9233C74.6995 43.9282 74.6786 43.9301 74.6635 43.9309C74.6564 43.9313 74.6507 43.9314 74.6476 43.9315C74.6449 43.9315 74.6427 43.9315 74.6446 43.9315C74.6454 43.9315 74.6502 43.9315 74.6555 43.9314C74.6614 43.9313 74.6697 43.9311 74.6796 43.9306C74.7002 43.9295 74.7268 43.927 74.7574 43.921L74.5652 42.9396C74.5897 42.9348 74.6106 42.9329 74.6257 42.9321C74.6329 42.9317 74.6385 42.9316 74.6417 42.9315C74.6444 42.9315 74.6465 42.9315 74.6446 42.9315C74.6438 42.9315 74.6391 42.9315 74.6337 42.9316C74.6279 42.9316 74.6195 42.9318 74.6096 42.9324C74.589 42.9335 74.5625 42.936 74.5319 42.942L74.7241 43.9233ZM74.3371 43.9635C74.4767 43.9635 74.6074 43.9469 74.727 43.9228L74.5289 42.9426C74.4607 42.9564 74.3975 42.9635 74.3371 42.9635V43.9635ZM74.1524 43.4801C74.3145 43.9531 74.3143 43.9532 74.3141 43.9533C74.314 43.9533 74.3138 43.9534 74.3137 43.9534C74.3134 43.9535 74.3131 43.9536 74.3129 43.9537C74.3124 43.9538 74.3118 43.954 74.3113 43.9542C74.3103 43.9545 74.3093 43.9549 74.3083 43.9552C74.3063 43.9559 74.3043 43.9565 74.3024 43.9571C74.2987 43.9583 74.2952 43.9593 74.2919 43.9602C74.2854 43.9621 74.28 43.9635 74.2757 43.9645C74.2671 43.9665 74.263 43.967 74.2641 43.9668C74.2666 43.9665 74.289 43.9635 74.3371 43.9635V42.9635C74.249 42.9635 74.1789 42.9689 74.1231 42.9768C74.0951 42.9808 74.0704 42.9855 74.0484 42.9906C74.0375 42.9932 74.0271 42.9959 74.0175 42.9986C74.0126 43 74.0079 43.0014 74.0034 43.0028C74.0011 43.0035 73.9989 43.0043 73.9967 43.005C73.9956 43.0053 73.9945 43.0057 73.9934 43.0061C73.9929 43.0062 73.9924 43.0064 73.9918 43.0066C73.9916 43.0067 73.9913 43.0068 73.991 43.0069C73.9909 43.0069 73.9907 43.007 73.9906 43.007C73.9904 43.0071 73.9902 43.0071 74.1524 43.4801ZM74.3955 44.1299C74.4284 44.0477 74.4658 43.9544 74.501 43.876C74.5188 43.8365 74.5324 43.8088 74.5415 43.7923C74.546 43.784 74.5464 43.7841 74.5427 43.7896C74.5418 43.7908 74.5238 43.8183 74.4883 43.8505L73.8164 43.1098C73.7337 43.1848 73.6825 43.279 73.6651 43.3106C73.6375 43.3608 73.6114 43.4159 73.5889 43.4661C73.5435 43.567 73.4983 43.6804 73.467 43.7586L74.3955 44.1299ZM74.3894 44.1451L74.3955 44.1298L73.467 43.7587L73.4609 43.774L74.3894 44.1451ZM71.1988 46.2869C72.3113 46.2869 73.0615 45.9382 73.5665 45.4581C74.0559 44.9928 74.2712 44.4419 74.3897 44.1445L73.4606 43.7745C73.3428 44.0705 73.1931 44.4333 72.8775 44.7334C72.5774 45.0186 72.0825 45.2869 71.1988 45.2869V46.2869ZM67.6607 44.5942C68.2955 45.2589 69.2708 46.2869 71.1988 46.2869V45.2869C69.7115 45.2869 68.9904 44.5386 68.3839 43.9036L67.6607 44.5942ZM67.6564 44.5896L67.6607 44.5942L68.3839 43.9035L68.3795 43.8989L67.6564 44.5896ZM66.7789 43.9635C66.9135 43.9635 66.9806 43.9837 67.0718 44.0429C67.1968 44.1239 67.3589 44.2753 67.6548 44.588L68.3811 43.9006C68.0953 43.5986 67.856 43.3596 67.6159 43.2039C67.3421 43.0263 67.0805 42.9635 66.7789 42.9635V43.9635ZM65.9015 44.5872C66.1995 44.2751 66.3617 44.1238 66.487 44.0426C66.5781 43.9836 66.6445 43.9635 66.7789 43.9635V42.9635C66.477 42.9635 66.2163 43.0264 65.9431 43.2035C65.7041 43.3584 65.4649 43.5964 65.1782 43.8966L65.9015 44.5872ZM65.8971 44.5918L65.9014 44.5872L65.1783 43.8965L65.174 43.901L65.8971 44.5918ZM62.356 46.2845C64.2868 46.2845 65.2622 45.2566 65.8971 44.5917L65.1739 43.9011C64.5676 44.5359 63.8464 45.2845 62.356 45.2845V46.2845ZM58.818 44.5918C59.4527 45.2564 60.428 46.2845 62.356 46.2845V45.2845C60.8688 45.2845 60.1476 44.5362 59.5411 43.9011L58.818 44.5918ZM58.8136 44.5872L58.818 44.5918L59.5411 43.9011L59.5368 43.8965L58.8136 44.5872ZM57.9361 43.9635C58.0708 43.9635 58.1381 43.9837 58.2296 44.0429C58.3546 44.1238 58.5168 44.2748 58.8127 44.5862L59.5377 43.8975C59.2519 43.5967 59.0127 43.3585 58.7727 43.2032C58.4991 43.0263 58.2377 42.9635 57.9361 42.9635V43.9635ZM57.0594 44.5889C57.3568 44.2762 57.52 44.1243 57.6455 44.0429C57.7373 43.9833 57.8039 43.9635 57.9361 43.9635V42.9635C57.6352 42.9635 57.3746 43.0267 57.1014 43.2039C56.8618 43.3592 56.6221 43.5977 56.3348 43.8997L57.0594 44.5889ZM53.5163 46.2869C55.4485 46.2869 56.4269 45.2544 57.0595 44.5887L56.3347 43.8998C55.7313 44.5347 55.0071 45.2869 53.5163 45.2869V46.2869ZM49.9752 44.5942C50.6102 45.2591 51.5854 46.2869 53.5163 46.2869V45.2869C52.0259 45.2869 51.3047 44.5384 50.6984 43.9035L49.9752 44.5942ZM49.9708 44.5896L49.9752 44.5942L50.6984 43.9035L50.694 43.899L49.9708 44.5896ZM49.0934 43.9659C49.228 43.9659 49.2954 43.9862 49.3868 44.0453C49.5119 44.1262 49.674 44.2772 49.9699 44.5887L50.6949 43.8999C50.4092 43.5991 50.1699 43.3609 49.9299 43.2057C49.6563 43.0287 49.395 42.9659 49.0934 42.9659V43.9659ZM48.216 44.5896C48.514 44.2775 48.6762 44.1263 48.8015 44.0451C48.8926 43.986 48.959 43.9659 49.0934 43.9659V42.9659C48.7915 42.9659 48.5308 43.0288 48.2576 43.2059C48.0186 43.3608 47.7794 43.5988 47.4927 43.899L48.216 44.5896ZM44.6735 46.2869C46.6089 46.2869 47.5843 45.2542 48.2168 44.5887L47.4919 43.8998C46.8884 44.5349 46.1673 45.2869 44.6735 45.2869V46.2869ZM41.1355 44.5942C41.7702 45.2589 42.7455 46.2869 44.6735 46.2869V45.2869C43.1863 45.2869 42.4652 44.5386 41.8587 43.9036L41.1355 44.5942ZM41.1311 44.5896L41.1355 44.5942L41.8587 43.9035L41.8543 43.8989L41.1311 44.5896ZM40.2537 43.9659C40.3883 43.9659 40.4556 43.9862 40.5471 44.0453C40.6721 44.1262 40.8343 44.2772 41.1302 44.5887L41.8552 43.8999C41.5694 43.5991 41.3302 43.3609 41.0902 43.2057C40.8166 43.0287 40.5552 42.9659 40.2537 42.9659V43.9659ZM39.3769 44.5913C39.6743 44.2786 39.8375 44.1267 39.963 44.0453C40.0548 43.9858 40.1214 43.9659 40.2537 43.9659V42.9659C39.9527 42.9659 39.6921 43.0291 39.4189 43.2063C39.1794 43.3616 38.9396 43.6002 38.6523 43.9021L39.3769 44.5913ZM35.8338 46.2894C37.7661 46.2894 38.7444 45.2568 39.3771 44.5912L38.6522 43.9023C38.0488 44.5371 37.3247 45.2894 35.8338 45.2894V46.2894ZM32.2958 44.5966C32.9305 45.2613 33.9058 46.2894 35.8338 46.2894V45.2894C34.3466 45.2894 33.6254 44.5411 33.0189 43.906L32.2958 44.5966ZM32.2915 44.5921L32.2958 44.5967L33.0188 43.9059L33.0145 43.9013L32.2915 44.5921ZM31.4139 43.9683C31.5486 43.9683 31.6159 43.9886 31.7073 44.0477C31.8324 44.1287 31.9946 44.2796 32.2905 44.5911L33.0155 43.9023C32.7297 43.6015 32.4904 43.3633 32.2505 43.2081C31.9769 43.0311 31.7155 42.9683 31.4139 42.9683V43.9683ZM30.5372 44.5938C30.8346 44.2811 30.9977 44.1292 31.1233 44.0477C31.2151 43.9882 31.2817 43.9683 31.4139 43.9683V42.9683C31.113 42.9683 30.8524 43.0315 30.5792 43.2087C30.3396 43.3641 30.0998 43.6026 29.8126 43.9045L30.5372 44.5938ZM26.9941 46.2918C28.9263 46.2918 29.9047 45.2593 30.5373 44.5936L29.8125 43.9047C29.2091 44.5395 28.4849 45.2918 26.9941 45.2918V46.2918ZM25.2753 45.6771C25.73 46.0859 26.3493 46.2918 26.9941 46.2918V45.2918C26.5542 45.2918 26.186 45.1512 25.944 44.9335L25.2753 45.6771ZM24.7896 41.1437C24.6174 42.1505 24.4772 43.0324 24.4987 43.762C24.5207 44.5106 24.7146 45.1764 25.2766 45.6782L25.9426 44.9323C25.6595 44.6795 25.5156 44.3249 25.4982 43.7326C25.4803 43.1213 25.5992 42.3419 25.7753 41.3124L24.7896 41.1437ZM24.7954 41.1096L24.7894 41.1448L25.7755 41.3113L25.7814 41.2761L24.7954 41.1096ZM25.0432 38.8429C25.0669 39.0498 25.0436 39.4129 24.9882 39.8561C24.9346 40.285 24.8579 40.7395 24.7954 41.1096L25.7814 41.2761C25.8433 40.9094 25.9237 40.4338 25.9804 39.9801C26.0354 39.5407 26.0756 39.0687 26.0367 38.7291L25.0432 38.8429ZM18.8201 45.5407C19.634 44.2781 20.8295 42.7738 22.0942 41.5475C22.7261 40.9348 23.3668 40.3998 23.9777 40.0002C24.5942 39.5968 25.1498 39.3515 25.6156 39.2802L25.4643 38.2918C24.7987 38.3936 24.1043 38.7223 23.4302 39.1633C22.7505 39.608 22.06 40.1878 21.398 40.8296C20.0749 42.1126 18.8318 43.677 17.9796 44.9989L18.8201 45.5407ZM17.3184 46.2919C17.9007 46.2919 18.5026 46.0382 18.8213 45.5388L17.9783 45.0008C17.8851 45.1469 17.6449 45.2919 17.3184 45.2919V46.2919ZM17.1969 46.2872C17.2495 46.2923 17.2981 46.2919 17.3184 46.2919V45.2919C17.3121 45.2919 17.3075 45.2919 17.3033 45.2919C17.2992 45.2919 17.2963 45.2918 17.2943 45.2918C17.29 45.2917 17.2907 45.2916 17.2944 45.2919L17.1969 46.2872ZM15.725 45.3765C15.9868 45.9463 16.6079 46.2618 17.2235 46.289L17.2678 45.29C16.9201 45.2746 16.699 45.1012 16.6337 44.959L15.725 45.3765ZM15.6104 35.9028C14.2259 37.5648 14.2345 39.8436 14.5622 41.6715C14.8939 43.5223 15.579 45.0605 15.7254 45.3774L16.6333 44.9581C16.501 44.6718 15.8562 43.2231 15.5465 41.4951C15.2327 39.7441 15.2882 37.852 16.3787 36.5428L15.6104 35.9028ZM20.3194 33.877C18.3073 33.979 16.6536 34.6527 15.6107 35.9024L16.3784 36.5432C17.1894 35.5714 18.5408 34.9684 20.37 34.8757L20.3194 33.877ZM22.4797 33.4301C22.5018 33.3879 22.5104 33.4037 22.4295 33.454C22.3561 33.4995 22.2354 33.5568 22.0532 33.6149C21.6891 33.731 21.1264 33.8357 20.3191 33.877L20.3703 34.8757C21.2321 34.8316 21.8857 34.7179 22.357 34.5676C22.5924 34.4926 22.7941 34.4046 22.9569 34.3036C23.1122 34.2072 23.2708 34.075 23.3656 33.894L22.4797 33.4301ZM22.1937 33.2337C22.3314 33.3559 22.4073 33.4607 22.4394 33.5257C22.455 33.5574 22.4532 33.5655 22.4518 33.5517C22.4502 33.5354 22.4496 33.4875 22.4797 33.4301L23.3656 33.894C23.5231 33.5931 23.4341 33.2817 23.3362 33.0834C23.2305 32.869 23.0595 32.6652 22.8579 32.4861L22.1937 33.2337ZM17.4134 32.3878C19.5847 31.9255 21.4309 32.5539 22.1932 33.2331L22.8585 32.4866C21.8151 31.5568 19.6263 30.8942 17.2051 31.4097L17.4134 32.3878ZM9.82601 39.5185C10.3956 37.891 11.5365 36.2615 12.9306 34.9551C14.3274 33.6462 15.9366 32.7005 17.4129 32.3879L17.2057 31.4096C15.4979 31.7713 13.7308 32.8348 12.2468 34.2254C10.7599 35.6187 9.51521 37.3793 8.88214 39.1882L9.82601 39.5185ZM10.5125 43.7909C9.78791 43.2082 9.5157 42.4507 9.47271 41.6735C9.42897 40.8827 9.62606 40.0921 9.82621 39.518L8.88194 39.1888C8.66099 39.8226 8.42031 40.7538 8.47424 41.7287C8.52892 42.7173 8.88984 43.7693 9.88591 44.5702L10.5125 43.7909ZM10.4784 45.9212C10.8238 45.6575 11.0337 45.2797 11.0415 44.866C11.0492 44.4515 10.8527 44.0661 10.5137 43.7918L9.88478 44.5693C10.0122 44.6724 10.043 44.7758 10.0416 44.8473C10.0403 44.9195 10.0048 45.0246 9.87155 45.1264L10.4784 45.9212ZM8.14721 45.8945C8.79786 46.4174 9.81504 46.4246 10.4772 45.9221L9.87276 45.1255C9.57161 45.354 9.06207 45.3469 8.77363 45.1151L8.14721 45.8945ZM6.54345 38.6876C5.52547 41.5977 6.04329 44.2044 8.14728 45.8946L8.77356 45.115C7.07872 43.7535 6.57263 41.6327 7.48737 39.0178L6.54345 38.6876ZM16.5724 29.5778C14.2305 30.0733 12.0479 31.4338 10.2989 33.1101C8.55017 34.786 7.19918 36.8116 6.54341 38.6877L7.48741 39.0177C8.08254 37.315 9.33524 35.4187 10.9908 33.832C12.646 32.2457 14.6682 31.0028 16.7794 30.5561L16.5724 29.5778ZM24.6789 31.2339C23.1156 29.8405 20.0247 28.8467 16.5724 29.5778L16.7795 30.5561C19.9614 29.8823 22.7171 30.8249 24.0135 31.9804L24.6789 31.2339ZM25.6061 34.6224C26.2228 33.4567 25.7689 32.2028 24.6784 31.2335L24.014 31.9809C24.9047 32.7725 25.0446 33.5454 24.7222 34.1548L25.6061 34.6224ZM20.5275 36.7723C23.7232 36.6092 25.0783 35.6179 25.6059 34.6228L24.7224 34.1544C24.4321 34.702 23.509 35.6188 20.4765 35.7736L20.5275 36.7723ZM18.4107 37.5833C18.7926 37.1264 19.4412 36.8279 20.5275 36.7723L20.4765 35.7737C19.2423 35.8368 18.2732 36.1886 17.6434 36.942L18.4107 37.5833ZM18.1889 42.262C17.9638 41.4205 17.7999 40.4928 17.8098 39.6423C17.8198 38.7843 18.0054 38.0694 18.4111 37.5828L17.643 36.9425C17.0278 37.6804 16.8211 38.6636 16.8099 39.6307C16.7986 40.6051 16.9845 41.6294 17.2229 42.5204L18.1889 42.262ZM26.0277 36.3664C24.2094 36.322 22.4739 37.2109 20.9993 38.3451C19.5163 39.4858 18.2355 40.9222 17.3146 42.08L18.0973 42.7025C18.9941 41.5748 20.2171 40.2084 21.609 39.1378C23.0092 38.0607 24.5197 37.3299 26.0033 37.3661L26.0277 36.3664ZM27.7102 37.0104C27.2676 36.5987 26.6629 36.3834 26.0289 36.3665L26.0022 37.3661C26.4344 37.3776 26.7931 37.5231 27.0291 37.7426L27.7102 37.0104ZM28.4325 38.5389C28.3622 37.9551 28.1595 37.4252 27.7088 37.0092L27.0305 37.7439C27.2584 37.9543 27.3888 38.2361 27.4397 38.6585L28.4325 38.5389ZM39.8023 35.2927C33.3305 35.8045 30.0083 36.9614 27.706 38.1548L28.1662 39.0426C30.3231 37.9246 33.5087 36.7936 39.8812 36.2896L39.8023 35.2927ZM46.2217 0.342578C45.572 0.942429 32.3165 13.5715 39.3649 35.9414L40.3186 35.6409C33.4437 13.8212 46.3622 1.57388 46.9 1.07729L46.2217 0.342578ZM46.3123 0.274883C46.3098 0.276434 46.2822 0.29304 46.2525 0.316322L46.8692 1.10355C46.8585 1.11195 46.8495 1.11806 46.8442 1.1216C46.8396 1.12461 46.836 1.12684 46.8393 1.12479L46.3123 0.274883ZM46.233 0.340434C46.2584 0.31391 46.2818 0.296015 46.2958 0.286C46.3078 0.277474 46.3183 0.271213 46.3124 0.274876L46.8393 1.1248C46.8401 1.12428 46.8571 1.11397 46.8752 1.10105C46.8955 1.08665 46.9247 1.06403 46.9553 1.03197L46.233 0.340434ZM46.43 0.186394C46.3805 0.219203 46.3269 0.257257 46.2706 0.305003L46.9177 1.0674C46.9342 1.05344 46.9533 1.03928 46.9825 1.01988L46.43 0.186394ZM46.5505 0.110096C46.4886 0.142423 46.4384 0.177796 46.3979 0.209541L47.0146 0.996736C47.0188 0.993443 47.0203 0.9925 47.0198 0.992841C47.0191 0.993297 47.0169 0.994726 47.0135 0.996503L46.5505 0.110096ZM46.6952 0.0424148C46.6587 0.0583399 46.6057 0.0813105 46.5505 0.110098L47.0135 0.996501C47.0328 0.986405 47.0541 0.976864 47.0955 0.95882L46.6952 0.0424148ZM46.7207 0.0312348L46.6947 0.0426312L47.0959 0.958604L47.122 0.947207L46.7207 0.0312348ZM46.8327 -0.0161994C46.7727 0.00466514 46.7226 0.0298342 46.7015 0.0401649L47.1412 0.938277C47.1476 0.935171 47.1518 0.933084 47.1558 0.931164C47.1596 0.929346 47.162 0.928226 47.1636 0.927503C47.1668 0.9261 47.1655 0.926799 47.1615 0.92819L46.8327 -0.0161994ZM47.0767 -0.0797738C47.0004 -0.0648349 46.922 -0.0457346 46.8404 -0.0188375L47.1537 0.930828C47.1873 0.919753 47.224 0.910374 47.2689 0.901581L47.0767 -0.0797738ZM47.0889 -0.0818418C47.085 -0.0808263 47.0836 -0.0804602 47.0825 -0.0801941C47.0817 -0.0799853 47.0827 -0.0802469 47.0848 -0.0807194C47.0887 -0.0815827 47.1005 -0.0841254 47.1172 -0.0859964L47.2284 0.907803C47.2845 0.901519 47.3339 0.887698 47.3415 0.885729L47.0889 -0.0818418ZM47.0335 -0.0638665L47.0334 -0.063862L47.3969 0.867749L47.3969 0.867745L47.0335 -0.0638665ZM47.1272 -0.0912589C47.11 -0.0874262 47.0944 -0.0832916 47.0888 -0.0818317L47.3415 0.88571C47.3454 0.884694 47.3468 0.884327 47.3479 0.884061C47.3487 0.883852 47.3477 0.884114 47.3456 0.884587L47.1272 -0.0912589ZM47.4909 -0.124695C47.3759 -0.124695 47.2623 -0.115373 47.1506 -0.0959254L47.3222 0.889254C47.374 0.880222 47.4301 0.875305 47.4909 0.875305V-0.124695ZM47.6829 -0.119772L47.5041 -0.124519L47.4776 0.875129L47.6563 0.879875L47.6829 -0.119772ZM48.9336 0.348126C48.5972 0.0360552 48.1332 -0.119949 47.6696 -0.119949V0.880051C47.9209 0.880051 48.1294 0.96612 48.2535 1.08123L48.9336 0.348126ZM55.8506 35.7712C62.7732 13.509 49.5824 0.944319 48.9318 0.346512L48.2552 1.08285C48.7921 1.5762 61.6476 13.7608 54.8957 35.4743L55.8506 35.7712ZM75.9964 42.1134C75.8115 41.5805 73.3555 35.948 55.3961 35.1233L55.3503 36.1222C73.1486 36.9396 75.0669 42.4852 75.0517 42.4412L75.9964 42.1134ZM76.0221 42.2226C76.022 42.2217 76.0203 42.2092 76.0178 42.1952C76.0151 42.1806 76.01 42.1554 76.0005 42.1255L75.0476 42.4291C75.0396 42.4039 75.0356 42.3838 75.0339 42.3743C75.0323 42.3655 75.0314 42.3583 75.032 42.3628L76.0221 42.2226ZM76.0204 42.2119C76.0212 42.2165 76.0217 42.22 76.022 42.2215C76.0222 42.2228 76.0223 42.2237 76.0221 42.2221L75.0321 42.3633C75.0322 42.3643 75.0338 42.3758 75.0361 42.3887L76.0204 42.2119ZM76.0065 42.1564C76.0147 42.1819 76.0186 42.2022 76.0203 42.2115L75.0362 42.3892C75.0389 42.4039 75.044 42.4294 75.0537 42.4598L76.0065 42.1564ZM76.0389 42.3043L76.0207 42.2118L75.0395 42.4045L75.0577 42.497L76.0389 42.3043ZM76.0604 42.5004C76.0604 42.4142 76.0448 42.3361 76.0402 42.311L75.0564 42.4904C75.058 42.4991 75.059 42.5047 75.0599 42.5098C75.0607 42.5147 75.0611 42.5172 75.0612 42.5183C75.0616 42.5208 75.0604 42.5135 75.0604 42.5004H76.0604ZM76.0557 42.436C76.0551 42.432 76.0563 42.4393 76.0573 42.4482C76.0585 42.4582 76.0604 42.4767 76.0604 42.5004H75.0604C75.0604 42.5287 75.0626 42.552 75.0644 42.5667C75.066 42.5804 75.068 42.5925 75.0681 42.5932L76.0557 42.436ZM76.0634 42.5288C76.0634 42.5005 76.0612 42.4772 76.0594 42.4623C76.0577 42.4484 76.0557 42.4363 76.0556 42.4352L75.0683 42.594C75.0688 42.5976 75.0676 42.5903 75.0665 42.5812C75.0653 42.571 75.0634 42.5524 75.0634 42.5288H76.0634ZM76.0519 42.6574C76.0538 42.6454 76.0634 42.592 76.0634 42.5288H75.0634C75.0634 42.513 75.0646 42.5008 75.0653 42.4946C75.0657 42.4917 75.0659 42.4902 75.0658 42.4909C75.0657 42.4919 75.0654 42.4934 75.0647 42.498L76.0519 42.6574ZM76.051 42.6629L76.0519 42.6572L75.0647 42.4982L75.0637 42.5039L76.051 42.6629ZM76.0245 42.8174C76.0475 42.7334 76.0533 42.6509 76.0553 42.6288L75.0594 42.538C75.0586 42.5475 75.0581 42.5532 75.0575 42.559C75.0569 42.5644 75.0566 42.5674 75.0564 42.569C75.0562 42.5706 75.0562 42.5699 75.0567 42.5675C75.0571 42.5651 75.0581 42.5602 75.0599 42.5536L76.0245 42.8174ZM75.9944 42.9227C76.002 42.8987 76.0192 42.8464 76.0313 42.7895L75.0532 42.5814C75.0536 42.5795 75.0534 42.5809 75.0514 42.5877C75.0492 42.5951 75.0466 42.6035 75.0417 42.6187L75.9944 42.9227ZM75.9948 42.9215L75.9948 42.9213L75.0413 42.6201L75.0412 42.6203L75.9948 42.9215ZM75.9231 43.0959C75.9457 43.0534 75.9606 43.0151 75.969 42.9926C75.9829 42.9556 75.9775 42.9688 75.9834 42.9537L75.0526 42.5882C75.0471 42.602 75.0425 42.6146 75.0395 42.6231C75.0358 42.6332 75.0345 42.6368 75.0329 42.6412C75.0299 42.6489 75.0327 42.6403 75.0402 42.6263L75.9231 43.0959ZM51.8343 38.0465H48.702V39.0465H51.8343V38.0465ZM48.3017 4.52925C51.7733 9.16613 58.1856 20.8992 51.3685 38.3647L52.3001 38.7283C59.2792 20.8477 52.7132 8.75286 49.1022 3.92992L48.3017 4.52925ZM49.202 38.5465V4.22958H48.202V38.5465H49.202ZM46.7785 38.5465V4.47868H45.7785V38.5465H46.7785ZM43.3249 39.0465H46.2785V38.0465H43.3249V39.0465ZM45.8743 4.18435C42.2372 9.17894 36.0152 21.1957 42.8591 38.7283L43.7907 38.3647C37.1055 21.2389 43.1826 9.57943 46.6827 4.77301L45.8743 4.18435ZM71.161 43.2188L71.1548 43.2344L72.0833 43.6057L72.0895 43.5902L71.161 43.2188ZM71.6748 43.902L71.6758 43.9019L71.5747 42.9071L71.5738 42.9072L71.6748 43.902ZM72.3224 41.6423C71.5927 42.1443 71.3054 42.8554 71.16 43.2189L72.0885 43.5903C72.2279 43.2418 72.4253 42.7853 72.8892 42.4661L72.3224 41.6423ZM54.7279 37.9995C66.9607 38.4935 71.0421 41.209 72.2539 42.4094L72.9577 41.699C71.4862 40.2414 67.1036 37.4984 54.7683 37.0003L54.7279 37.9995ZM54.3418 39.9763C54.6599 39.1949 54.9504 38.4259 55.2194 37.6669L54.2768 37.3329C54.0126 38.0786 53.7275 38.8332 53.4156 39.5992L54.3418 39.9763ZM52.7245 40.9498C53.3951 40.9498 54.084 40.6084 54.3417 39.9765L53.4157 39.599C53.3521 39.7549 53.1081 39.9498 52.7245 39.9498V40.9498ZM42.4311 40.9498H52.7245V39.9498H42.4311V40.9498ZM40.8139 39.9764C41.0715 40.6085 41.7606 40.9498 42.4311 40.9498V39.9498C42.0474 39.9498 41.8035 39.7549 41.74 39.599L40.8139 39.9764ZM39.9975 37.8256C40.2506 38.5303 40.5195 39.246 40.8132 39.9747L41.7407 39.6008C41.4527 38.8865 41.1884 38.183 40.9387 37.4876L39.9975 37.8256ZM28.0221 41.4802C29.0716 40.844 30.2623 40.161 32.1449 39.5623C34.0343 38.9615 36.6376 38.4404 40.5049 38.1552L40.4313 37.1579C36.51 37.4471 33.8255 37.9785 31.8419 38.6093C29.8515 39.2423 28.5839 39.9703 27.5037 40.6251L28.0221 41.4802ZM28.2289 41.2996C28.238 41.2436 28.2467 41.1901 28.2558 41.1365L27.27 40.9688C27.2602 41.0264 27.2509 41.0834 27.2419 41.1388L28.2289 41.2996ZM28.1823 41.5753C28.1998 41.4782 28.2148 41.3861 28.2289 41.2996L27.2419 41.1388C27.2276 41.2263 27.2139 41.3106 27.1981 41.3986L28.1823 41.5753ZM27.9256 43.7856C27.9108 43.5538 27.9408 43.187 27.9963 42.7634C28.0505 42.3497 28.1238 41.9187 28.1831 41.571L27.1973 41.4029C27.1385 41.7481 27.0618 42.1977 27.0047 42.6335C26.9489 43.0596 26.9061 43.5115 26.9277 43.8493L27.9256 43.7856ZM27.8722 42.7786C27.4965 43.176 27.3361 43.3086 27.2172 43.3634L27.6361 44.2715C27.9596 44.1223 28.2475 43.8372 28.5988 43.4656L27.8722 42.7786ZM27.8782 42.7723L27.8739 42.7768L28.5971 43.4674L28.6014 43.4629L27.8782 42.7723ZM31.4194 41.0795C29.4886 41.0795 28.5132 42.1074 27.8783 42.7723L28.6014 43.4629C29.2077 42.8281 29.929 42.0795 31.4194 42.0795V41.0795ZM34.9574 42.7722C34.3227 42.1076 33.3474 41.0795 31.4194 41.0795V42.0795C32.9066 42.0795 33.6277 42.8278 34.2342 43.4629L34.9574 42.7722ZM34.9617 42.7767L34.9573 42.7721L34.2343 43.4629L34.2387 43.4675L34.9617 42.7767ZM35.8392 43.4005C35.7046 43.4005 35.6373 43.3802 35.5458 43.3211C35.4208 43.2402 35.2586 43.0892 34.9627 42.7777L34.2377 43.4665C34.5235 43.7673 34.7627 44.0055 35.0027 44.1607C35.2763 44.3377 35.5377 44.4005 35.8392 44.4005V43.4005ZM36.7166 42.7768C36.4186 43.0889 36.2564 43.2401 36.1311 43.3214C36.04 43.3804 35.9736 43.4005 35.8392 43.4005V44.4005C36.1411 44.4005 36.4018 44.3376 36.675 44.1605C36.914 44.0056 37.1532 43.7676 37.4399 43.4674L36.7166 42.7768ZM36.721 42.7723L36.7167 42.7768L37.4399 43.4674L37.4442 43.4629L36.721 42.7723ZM40.2621 41.0795C38.3313 41.0795 37.356 42.1074 36.721 42.7723L37.4442 43.4629C38.0505 42.8281 38.7717 42.0795 40.2621 42.0795V41.0795ZM43.8002 42.7722C43.1654 42.1076 42.1901 41.0795 40.2621 41.0795V42.0795C41.7494 42.0795 42.4705 42.8278 43.077 43.4629L43.8002 42.7722ZM43.8045 42.7768L43.8001 42.7722L43.077 43.4629L43.0814 43.4675L43.8045 42.7768ZM44.682 43.4005C44.5496 43.4005 44.4829 43.3806 44.3909 43.3211C44.2652 43.2398 44.1021 43.0883 43.8046 42.7768L43.0814 43.4674C43.3685 43.7682 43.6083 44.0059 43.8477 44.1607C44.1207 44.3373 44.3811 44.4005 44.682 44.4005V43.4005ZM45.5594 42.7768C45.2614 43.0889 45.0992 43.2401 44.9739 43.3214C44.8828 43.3804 44.8163 43.4005 44.682 43.4005V44.4005C44.9839 44.4005 45.2446 44.3376 45.5178 44.1605C45.7568 44.0056 45.996 43.7676 46.2826 43.4674L45.5594 42.7768ZM49.1019 41.0795C47.1664 41.0795 46.191 42.1122 45.5586 42.7777L46.2834 43.4666C46.887 42.8315 47.6081 42.0795 49.1019 42.0795V41.0795ZM52.6399 42.7722C52.0052 42.1076 51.0298 41.0795 49.1019 41.0795V42.0795C50.5891 42.0795 51.3102 42.8278 51.9167 43.4629L52.6399 42.7722ZM52.6443 42.7768L52.6399 42.7722L51.9167 43.4629L51.9211 43.4675L52.6443 42.7768ZM53.5247 43.4029C53.3902 43.4029 53.3229 43.3827 53.231 43.3233C53.1054 43.242 52.9425 43.0903 52.645 42.7775L51.9204 43.4667C52.2076 43.7687 52.4476 44.0074 52.6877 44.1628C52.9617 44.3401 53.223 44.4029 53.5247 44.4029V43.4029ZM54.4022 42.7792C54.1041 43.0914 53.9419 43.2426 53.8166 43.3238C53.7256 43.3828 53.6591 43.4029 53.5247 43.4029V44.4029C53.8266 44.4029 54.0873 44.34 54.3605 44.1629C54.5996 44.008 54.8388 43.77 55.1254 43.4698L54.4022 42.7792ZM54.4066 42.7746L54.4022 42.7792L55.1253 43.4699L55.1296 43.4654L54.4066 42.7746ZM57.9476 41.0819C56.0168 41.0819 55.0415 42.1098 54.4065 42.7747L55.1297 43.4654C55.736 42.8305 56.4572 42.0819 57.9476 42.0819V41.0819ZM61.4857 42.7746C60.8509 42.11 59.8756 41.0819 57.9476 41.0819V42.0819C59.4349 42.0819 60.156 42.8302 60.7625 43.4653L61.4857 42.7746ZM61.4901 42.7792L61.4857 42.7746L60.7625 43.4653L60.7669 43.4699L61.4901 42.7792ZM62.3675 43.4029C62.2329 43.4029 62.1655 43.3827 62.0741 43.3235C61.949 43.2426 61.7869 43.0916 61.491 42.7802L60.766 43.4689C61.0517 43.7697 61.291 44.0079 61.531 44.1632C61.8046 44.3402 62.0659 44.4029 62.3675 44.4029V43.4029ZM63.2473 42.7775C62.9498 43.0903 62.7868 43.242 62.6612 43.3233C62.5693 43.3827 62.502 43.4029 62.3675 43.4029V44.4029C62.6692 44.4029 62.9306 44.3401 63.2045 44.1628C63.4447 44.0073 63.6846 43.7686 63.9718 43.4667L63.2473 42.7775ZM66.7904 41.0795C64.8582 41.0795 63.8798 42.112 63.2471 42.7777L63.972 43.4666C64.5753 42.8317 65.2995 42.0795 66.7904 42.0795V41.0795ZM70.3315 42.7722C69.6965 42.1073 68.7212 41.0795 66.7904 41.0795V42.0795C68.2808 42.0795 69.002 42.828 69.6083 43.4629L70.3315 42.7722ZM70.3358 42.7768L70.3315 42.7722L69.6083 43.4629L69.6127 43.4674L70.3358 42.7768ZM71.2133 43.4005C71.0809 43.4005 71.0142 43.3806 70.9221 43.3211C70.7965 43.2398 70.6334 43.0883 70.3358 42.7768L69.6126 43.4674C69.8998 43.7682 70.1396 44.0059 70.379 44.1607C70.652 44.3373 70.9124 44.4005 71.2133 44.4005V43.4005ZM71.3981 43.8839C71.2359 43.4109 71.2361 43.4108 71.2363 43.4108C71.2364 43.4108 71.2366 43.4107 71.2367 43.4106C71.237 43.4106 71.2373 43.4105 71.2375 43.4104C71.2381 43.4102 71.2386 43.41 71.2391 43.4098C71.2401 43.4095 71.2411 43.4092 71.2421 43.4088C71.2441 43.4082 71.2461 43.4076 71.248 43.407C71.2517 43.4058 71.2552 43.4047 71.2585 43.4038C71.265 43.402 71.2704 43.4006 71.2747 43.3996C71.2833 43.3976 71.2874 43.397 71.2863 43.3972C71.2838 43.3976 71.2614 43.4005 71.2133 43.4005V44.4005C71.3015 44.4005 71.3715 44.3952 71.4273 44.3872C71.4553 44.3832 71.4801 44.3785 71.502 44.3734C71.513 44.3709 71.5233 44.3682 71.5329 44.3654C71.5378 44.364 71.5425 44.3626 71.547 44.3612C71.5493 44.3605 71.5515 44.3598 71.5537 44.3591C71.5548 44.3587 71.5559 44.3583 71.557 44.358C71.5575 44.3578 71.558 44.3576 71.5586 44.3574C71.5588 44.3573 71.5591 44.3573 71.5594 44.3572C71.5595 44.3571 71.5597 44.357 71.5598 44.357C71.56 44.357 71.5602 44.3569 71.3981 43.8839ZM71.1548 43.2344C71.1219 43.3165 71.0845 43.4099 71.0493 43.4882C71.0316 43.5276 71.018 43.5553 71.0089 43.5718C71.0044 43.58 71.004 43.5799 71.0077 43.5745C71.0086 43.5732 71.0267 43.5457 71.0621 43.5136L71.734 44.2542C71.8167 44.1792 71.8679 44.0851 71.8853 44.0535C71.9128 44.0033 71.9389 43.9482 71.9615 43.8981C72.0068 43.7972 72.052 43.6839 72.0833 43.6057L71.1548 43.2344Z" fill="#222532"/>
<path d="M8.1002 30.1357C7.94571 29.991 6.54011 28.7308 4.74069 28.7308C3.90764 28.7308 2.71708 28.999 1.78104 30.2734L0.735882 31.6974H9.77833L8.1002 30.1357Z" fill="white" stroke="#222532"/>
<path fill-rule="evenodd" clip-rule="evenodd" d="M5.75002 33.5745L6.9951 33.6766L6.83763 34.6496C6.38015 37.2791 2.8419 40.0535 2.69043 40.1721L1.05155 41.4442L0.645612 39.6643C0.163943 37.5711 0.506253 35.962 1.66044 34.8822C3.27506 33.3704 5.75002 33.5745 5.75002 33.5745ZM3.52413 36.0997C3.30875 36.299 3.14797 36.553 3.03573 36.852L3.03574 36.852C3.29359 36.5506 3.54234 36.235 3.75469 35.9169C3.67581 35.9715 3.59694 36.0309 3.52413 36.0997Z" fill="white"/>
<path d="M6.9951 33.6766L7.48868 33.7565L7.57511 33.2224L7.03595 33.1783L6.9951 33.6766ZM5.75002 33.5745L5.70893 34.0728L5.70918 34.0729L5.75002 33.5745ZM6.83763 34.6496L7.33026 34.7353L7.3312 34.7295L6.83763 34.6496ZM2.69043 40.1721L2.99701 40.5671L2.99878 40.5657L2.69043 40.1721ZM1.05155 41.4442L0.564062 41.5554L0.738475 42.3202L1.35813 41.8392L1.05155 41.4442ZM0.645612 39.6643L1.1331 39.5531L1.13288 39.5521L0.645612 39.6643ZM1.66044 34.8822L2.00204 35.2473L2.00218 35.2472L1.66044 34.8822ZM3.03573 36.852L2.56762 36.6763L2.4791 36.9121L2.61595 37.1236L3.03573 36.852ZM3.52413 36.0997L3.86379 36.4666L3.86761 36.463L3.52413 36.0997ZM3.03574 36.852L2.61596 37.1237L2.98003 37.6863L3.41568 37.1771L3.03574 36.852ZM3.75469 35.9169L4.17051 36.1946L3.47017 35.5058L3.75469 35.9169ZM7.03595 33.1783L5.79086 33.0762L5.70918 34.0729L6.95426 34.1749L7.03595 33.1783ZM7.3312 34.7295L7.48868 33.7565L6.50152 33.5967L6.34405 34.5697L7.3312 34.7295ZM2.99878 40.5657C3.08289 40.4998 4.02909 39.7577 5.01609 38.6922C5.98532 37.6459 7.07484 36.2032 7.33023 34.7353L6.34503 34.5639C6.14294 35.7255 5.2346 36.9848 4.28247 38.0127C3.34809 39.0214 2.44943 39.7258 2.38208 39.7785L2.99878 40.5657ZM1.35813 41.8392L2.99701 40.5671L2.38385 39.7771L0.744965 41.0492L1.35813 41.8392ZM0.158129 39.7754L0.564062 41.5554L1.53903 41.333L1.1331 39.5531L0.158129 39.7754ZM1.31885 34.517C-0.0106098 35.7608 -0.347161 37.5796 0.158347 39.7764L1.13288 39.5521C0.675047 37.5625 1.02312 36.1631 2.00204 35.2473L1.31885 34.517ZM5.75002 33.5745C5.79111 33.0762 5.79094 33.0762 5.79076 33.0762C5.79069 33.0762 5.7905 33.0762 5.79036 33.0762C5.79007 33.0761 5.78974 33.0761 5.78937 33.0761C5.78864 33.076 5.78775 33.076 5.78672 33.0759C5.78464 33.0757 5.78197 33.0755 5.77871 33.0753C5.77218 33.0748 5.7633 33.0742 5.75217 33.0735C5.7299 33.0722 5.69859 33.0705 5.65906 33.0691C5.58005 33.0661 5.46794 33.0639 5.32936 33.0663C5.05281 33.0712 4.66756 33.0944 4.22782 33.1684C3.35612 33.3149 2.22556 33.6681 1.31871 34.5172L2.00218 35.2472C2.70994 34.5845 3.62417 34.2839 4.3936 34.1545C4.77443 34.0905 5.10883 34.0703 5.3468 34.0662C5.46548 34.0641 5.55933 34.066 5.62198 34.0684C5.65328 34.0695 5.67672 34.0708 5.6915 34.0717C5.69888 34.0721 5.70409 34.0725 5.70703 34.0727C5.7085 34.0728 5.70941 34.0729 5.70973 34.0729C5.70989 34.0729 5.7099 34.0729 5.70977 34.0729C5.7097 34.0729 5.7096 34.0729 5.70946 34.0729C5.70939 34.0729 5.70926 34.0729 5.70922 34.0729C5.70908 34.0729 5.70893 34.0728 5.75002 33.5745ZM3.50385 37.0277C3.59338 36.7892 3.7145 36.6048 3.86378 36.4666L3.18449 35.7327C2.903 35.9933 2.70256 36.3168 2.56762 36.6763L3.50385 37.0277ZM3.45553 36.5804L3.45552 36.5804L2.61595 37.1236L2.61596 37.1237L3.45553 36.5804ZM3.33886 35.6393C3.14101 35.9356 2.90562 36.235 2.6558 36.527L3.41568 37.1771C3.68157 36.8663 3.94366 36.5343 4.17051 36.1946L3.33886 35.6393ZM3.86761 36.463C3.9145 36.4187 3.97048 36.3757 4.0392 36.3281L3.47017 35.5058C3.38114 35.5674 3.27937 35.643 3.18066 35.7363L3.86761 36.463Z" fill="#222532"/>
<path fill-rule="evenodd" clip-rule="evenodd" d="M15.0796 28.2913C15.0796 29.2833 14.0467 30.0902 12.7804 30.0902C11.5142 30.0902 10.4842 29.2833 10.4842 28.2913C10.4842 27.2993 11.5142 26.4924 12.7804 26.4924C14.0497 26.4924 15.0796 27.2993 15.0796 28.2913ZM12.908 28.2912C12.908 28.2367 12.8504 28.1916 12.7806 28.1916C12.7108 28.1916 12.6562 28.2367 12.6562 28.2912C12.6562 28.4004 12.908 28.4004 12.908 28.2912Z" fill="white"/>
<path d="M12.7804 30.5902C14.2013 30.5902 15.5796 29.6669 15.5796 28.2913H14.5796C14.5796 28.8996 13.892 29.5902 12.7804 29.5902V30.5902ZM9.9842 28.2913C9.9842 29.6662 11.3585 30.5902 12.7804 30.5902V29.5902C11.6698 29.5902 10.9842 28.9004 10.9842 28.2913H9.9842ZM12.7804 25.9924C11.3585 25.9924 9.9842 26.9163 9.9842 28.2913H10.9842C10.9842 27.6822 11.6698 26.9924 12.7804 26.9924V25.9924ZM15.5796 28.2913C15.5796 26.916 14.2048 25.9924 12.7804 25.9924V26.9924C13.8945 26.9924 14.5796 27.6825 14.5796 28.2913H15.5796ZM12.7806 28.6916C12.7107 28.6916 12.6325 28.6696 12.5624 28.6147C12.4924 28.56 12.408 28.4502 12.408 28.2912H13.408C13.408 28.0777 13.2947 27.918 13.1785 27.8271C13.0621 27.7361 12.9202 27.6916 12.7806 27.6916V28.6916ZM13.1562 28.2912C13.1562 28.4401 13.0805 28.5499 13.0067 28.6097C12.9335 28.6689 12.8514 28.6916 12.7806 28.6916V27.6916C12.539 27.6916 12.1562 27.8666 12.1562 28.2912H13.1562ZM12.408 28.2912C12.408 28.0902 12.536 27.9674 12.6184 27.9198C12.6903 27.8782 12.7513 27.8731 12.7821 27.8731C12.8129 27.8731 12.8739 27.8782 12.9458 27.9198C13.0282 27.9674 13.1562 28.0902 13.1562 28.2912H12.1562C12.1562 28.5469 12.3157 28.7106 12.4453 28.7855C12.5644 28.8544 12.6884 28.8731 12.7821 28.8731C12.8758 28.8731 12.9998 28.8544 13.1189 28.7855C13.2485 28.7106 13.408 28.5469 13.408 28.2912H12.408Z" fill="#222532"/>
</svg>
