<svg width="65" height="33" viewBox="0 0 65 33" fill="none" xmlns="http://www.w3.org/2000/svg">
<path fill-rule="evenodd" clip-rule="evenodd" d="M63.2373 22.2762V25.0226L63.2367 25.0228C63.9714 25.1387 64.5249 25.6393 64.5249 26.2346V27.2223C64.5249 27.8214 63.9714 28.3201 63.2367 28.436V28.4612H54.7808C54.3128 30.7012 51.7894 32.4195 48.7452 32.4195C45.7009 32.4195 43.1775 30.7012 42.712 28.4612H20.323C19.855 30.7012 17.3316 32.4195 14.2873 32.4195C11.2431 32.4195 8.71715 30.6993 8.2517 28.4612H3.33818L2.37459 28.4631C1.48397 28.4631 0.761905 27.9065 0.761905 27.2242V26.2365C0.761905 25.5523 1.48648 24.9976 2.37459 24.9976H3.33818V13.8668C3.33818 10.4554 6.95107 7.67992 11.3916 7.67992L18.8235 7.67605V5.70268C10.9845 5.12867 4.34234 4.05596 2.33214 2.51167C2.03275 2.28362 1.96231 1.93183 2.15855 1.64385C2.35479 1.3578 2.76742 1.19931 3.18506 1.25729C9.59547 2.13863 19.5637 2.25653 28.4647 2.25653C30.3567 2.25653 32.216 2.25266 34.0022 2.24686C34.4568 2.2458 34.9067 2.2446 35.3514 2.24341L35.3514 2.24341C36.5283 2.24025 37.6685 2.2372 38.7623 2.2372L47.0546 2.23913H47.0572C52.6702 2.23913 56.127 2.21014 60.6103 2.04199C61.0531 2.02843 61.4631 2.24877 61.5864 2.57928C61.7097 2.9098 61.521 3.26351 61.1311 3.43166C60.4845 3.70998 59.6794 3.96896 58.7258 4.20863V5.71042C58.7258 6.37918 58.2629 6.95706 57.4855 7.25857C57.1559 7.38614 56.8088 7.44992 56.4641 7.44992C55.9962 7.44992 55.5307 7.33395 55.1281 7.10395L52.011 5.32775C48.041 5.7723 43.125 6.05449 37.4744 6.15499V7.68187L44.2345 7.67994C48.542 7.67994 52.5146 8.78743 55.7047 10.6487L55.9689 10.8072C58.6382 12.4209 60.7315 14.5721 61.9718 17.048L61.9793 17.0596L61.997 17.0924C62.0145 17.1309 62.0336 17.1683 62.0525 17.2054C62.0688 17.2373 62.085 17.269 62.1001 17.3012L62.485 18.0685H62.4297C62.953 19.4021 63.2373 20.815 63.2373 22.2762ZM45.5256 16.586H59.6069H59.6072C58.5254 14.8716 56.9655 13.3505 55.0308 12.1328H45.5256C45.352 12.1328 45.2036 12.2469 45.2036 12.3802V16.3386C45.2036 16.4719 45.352 16.586 45.5256 16.586ZM56.7966 5.71043C56.7966 5.81287 56.7387 5.88631 56.618 5.9327C56.4972 5.97909 56.389 5.97136 56.2809 5.90951L54.6606 4.98756C55.4204 4.87546 56.1325 4.75563 56.7966 4.63L56.7966 5.71043ZM32.761 3.73607L32.7608 3.73607C31.3613 3.73941 29.9251 3.74284 28.4679 3.74284L28.4685 3.7428C22.7498 3.7428 16.5908 3.69255 11.1792 3.42389C16.3768 4.17771 23.8518 4.71114 32.6447 4.71114C40.7251 4.71114 47.7926 4.34782 52.9225 3.70805C51.1739 3.72351 49.2845 3.72931 47.0604 3.72931H47.0579L38.763 3.72351C37.2585 3.72351 35.6659 3.72738 34.0105 3.73318L32.761 3.73607ZM20.7565 5.83606C24.6335 6.07379 28.7243 6.19555 32.6441 6.19555C33.6278 6.19555 34.5939 6.18975 35.5424 6.18009V7.6799H20.7565V5.83606ZM10.1017 27.7192C10.1017 29.4935 11.9786 30.9354 14.2881 30.9354C16.5977 30.9354 18.4746 29.4935 18.4746 27.7192C18.4746 25.9449 16.5977 24.5031 14.2881 24.5031C11.9786 24.5031 10.1017 25.9449 10.1017 27.7192ZM48.7458 30.9354C46.4362 30.9354 44.5593 29.4935 44.5593 27.7192C44.5593 25.9449 46.4362 24.5031 48.7458 24.5031C51.0553 24.5031 52.9322 25.9449 52.9322 27.7192C52.9322 29.4935 51.0553 30.9354 48.7458 30.9354ZM48.7458 23.0187C51.79 23.0187 54.3159 24.7369 54.7814 26.977H62.5932V26.4822H56.7965V24.9979H61.305V22.2784C61.305 20.8056 60.983 19.3928 60.3993 18.0708H45.5252C44.2824 18.0708 43.271 17.2938 43.271 16.339V12.3807C43.271 11.4259 44.2824 10.6489 45.5252 10.6489H52.1095C49.7519 9.70374 47.0724 9.16452 44.2345 9.16452H11.3922C8.01588 9.16452 5.27106 11.2751 5.27106 13.867V16.5864H14.9772V18.0708H5.27106V24.9979H6.55919V26.4822H2.69479V26.977H8.25238C8.72036 24.7369 11.2438 23.0187 14.288 23.0187C17.3323 23.0187 19.8582 24.7369 20.3236 26.977H42.7101C43.1781 24.7369 45.7015 23.0187 48.7458 23.0187Z" fill="white"/>
<path d="M63.2373 25.0226L63.3033 25.3153L63.5373 25.2625V25.0226H63.2373ZM63.2367 25.0228L63.1707 24.7301L63.19 25.3191L63.2367 25.0228ZM63.2367 28.436L63.19 28.1397L62.9367 28.1797V28.436H63.2367ZM63.2367 28.4612V28.7612H63.5367V28.4612H63.2367ZM54.7808 28.4612V28.1612H54.537L54.4871 28.3998L54.7808 28.4612ZM42.712 28.4612L43.0058 28.4001L42.9561 28.1612H42.712V28.4612ZM20.323 28.4612V28.1612H20.0792L20.0293 28.3998L20.323 28.4612ZM8.2517 28.4612L8.54542 28.4001L8.49574 28.1612H8.2517V28.4612ZM3.33818 28.4612L3.33818 28.1612L3.33757 28.1612L3.33818 28.4612ZM2.37459 28.4631L2.37459 28.7631L2.37519 28.7631L2.37459 28.4631ZM3.33818 24.9976V25.2976H3.63818V24.9976H3.33818ZM11.3916 7.67992L11.3916 7.97992L11.3918 7.97992L11.3916 7.67992ZM18.8235 7.67605L18.8237 7.97605L19.1235 7.9759V7.67605H18.8235ZM18.8235 5.70268H19.1235V5.42384L18.8454 5.40348L18.8235 5.70268ZM2.33214 2.51167L2.51491 2.27376L2.51393 2.27301L2.33214 2.51167ZM2.15855 1.64385L1.91117 1.47413L1.91063 1.47491L2.15855 1.64385ZM3.18506 1.25729L3.14381 1.55444L3.1442 1.5545L3.18506 1.25729ZM34.0022 2.24686L34.0015 1.94686L34.0013 1.94686L34.0022 2.24686ZM35.3514 2.24341L35.3522 2.54341L35.3525 2.5434L35.3514 2.24341ZM35.3514 2.24341L35.3506 1.94341L35.3502 1.94341L35.3514 2.24341ZM38.7623 2.2372L38.7623 1.9372H38.7623V2.2372ZM47.0546 2.23913L47.0546 2.53913H47.0546V2.23913ZM60.6103 2.04199L60.6011 1.74212L60.599 1.7422L60.6103 2.04199ZM61.5864 2.57928L61.8675 2.47444L61.8675 2.47444L61.5864 2.57928ZM61.1311 3.43166L61.2497 3.70721L61.2498 3.70714L61.1311 3.43166ZM58.7258 4.20863L58.6527 3.91768L58.4258 3.9747V4.20863H58.7258ZM57.4855 7.25857L57.5938 7.53835L57.594 7.53827L57.4855 7.25857ZM55.1281 7.10395L55.277 6.84347L55.2767 6.8433L55.1281 7.10395ZM52.011 5.32775L52.1595 5.0671L52.0747 5.01874L51.9776 5.02961L52.011 5.32775ZM37.4744 6.15499L37.469 5.85504L37.1744 5.86028V6.15499H37.4744ZM37.4744 7.68187H37.1744V7.98195L37.4745 7.98187L37.4744 7.68187ZM44.2345 7.67994L44.2345 7.37994L44.2344 7.37994L44.2345 7.67994ZM55.7047 10.6487L55.8591 10.3914L55.8559 10.3896L55.7047 10.6487ZM55.9689 10.8072L56.1241 10.5504L56.1232 10.5499L55.9689 10.8072ZM61.9718 17.048L61.7036 17.1824L61.7111 17.1975L61.7204 17.2117L61.9718 17.048ZM61.9793 17.0596L62.2438 16.9179L62.2377 16.9066L62.2308 16.8959L61.9793 17.0596ZM61.997 17.0924L62.2698 16.9677L62.2658 16.9591L62.2614 16.9507L61.997 17.0924ZM62.0525 17.2054L62.3198 17.0691L62.3198 17.0691L62.0525 17.2054ZM62.1001 17.3012L61.8285 17.4288L61.832 17.4357L62.1001 17.3012ZM62.485 18.0685V18.3685H62.9712L62.7532 17.934L62.485 18.0685ZM62.4297 18.0685V17.7685H61.9897L62.1504 18.1781L62.4297 18.0685ZM59.6072 16.586V16.886H60.1512L59.8609 16.4258L59.6072 16.586ZM55.0308 12.1328L55.1906 11.8789L55.1173 11.8328H55.0308V12.1328ZM56.7966 5.71043L56.4966 5.71043V5.71043H56.7966ZM56.2809 5.90951L56.4297 5.64906L56.4292 5.64876L56.2809 5.90951ZM54.6606 4.98756L54.6168 4.69077L53.7557 4.81782L54.5123 5.2483L54.6606 4.98756ZM56.7966 4.63L57.0966 4.63L57.0966 4.26793L56.7409 4.33522L56.7966 4.63ZM32.7608 3.73607L32.7615 4.03607L32.7616 4.03607L32.7608 3.73607ZM32.761 3.73607L32.7603 3.43607L32.7601 3.43607L32.761 3.73607ZM28.4679 3.74284L28.4468 3.44359L28.4679 4.04284V3.74284ZM28.4685 3.7428L28.4897 4.04205L28.4685 3.4428V3.7428ZM11.1792 3.42389L11.194 3.12426L11.1361 3.72079L11.1792 3.42389ZM52.9225 3.70805L52.9596 4.00575L52.9198 3.40806L52.9225 3.70805ZM47.0579 3.72931L47.0577 4.02931H47.0579V3.72931ZM38.763 3.72351L38.7632 3.42351H38.763V3.72351ZM34.0105 3.73318L34.0111 4.03318L34.0115 4.03318L34.0105 3.73318ZM20.7565 5.83606L20.7749 5.53662L20.4565 5.5171V5.83606H20.7565ZM35.5424 6.18009H35.8424V5.87702L35.5393 5.88011L35.5424 6.18009ZM35.5424 7.6799V7.9799H35.8424V7.6799H35.5424ZM20.7565 7.6799H20.4565V7.9799H20.7565V7.6799ZM54.7814 26.977L54.4877 27.0381L54.5373 27.277H54.7814V26.977ZM62.5932 26.977V27.277H62.8932V26.977H62.5932ZM62.5932 26.4822H62.8932V26.1822H62.5932V26.4822ZM56.7965 26.4822H56.4965V26.7822H56.7965V26.4822ZM56.7965 24.9979V24.6979H56.4965V24.9979H56.7965ZM61.305 24.9979V25.2979H61.605V24.9979H61.305ZM60.3993 18.0708L60.6738 17.9496L60.5948 17.7708H60.3993V18.0708ZM52.1095 10.6489V10.9489L52.2212 10.3704L52.1095 10.6489ZM5.27106 16.5864H4.97106V16.8864H5.27106V16.5864ZM14.9772 16.5864H15.2772V16.2864H14.9772V16.5864ZM14.9772 18.0708V18.3708H15.2772V18.0708H14.9772ZM5.27106 18.0708V17.7708H4.97106V18.0708H5.27106ZM5.27106 24.9979H4.97106V25.2979H5.27106V24.9979ZM6.55919 24.9979H6.85919V24.6979H6.55919V24.9979ZM6.55919 26.4822V26.7822H6.85919V26.4822H6.55919ZM2.69479 26.4822V26.1822H2.39479V26.4822H2.69479ZM2.69479 26.977H2.39479V27.277H2.69479V26.977ZM8.25238 26.977V27.277H8.49619L8.54604 27.0384L8.25238 26.977ZM20.3236 26.977L20.0299 27.0381L20.0796 27.277H20.3236V26.977ZM42.7101 26.977V27.277H42.9539L43.0038 27.0384L42.7101 26.977ZM63.5373 25.0226V22.2762H62.9373V25.0226H63.5373ZM63.3028 25.3154L63.3033 25.3153L63.1712 24.73L63.1707 24.7301L63.3028 25.3154ZM64.8249 26.2346C64.8249 25.4356 64.1005 24.8554 63.2835 24.7264L63.19 25.3191C63.8422 25.4221 64.2249 25.8431 64.2249 26.2346H64.8249ZM64.8249 27.2223V26.2346H64.2249V27.2223H64.8249ZM63.2835 28.7324C64.1005 28.6034 64.8249 28.0252 64.8249 27.2223H64.2249C64.2249 27.6176 63.8422 28.0367 63.19 28.1397L63.2835 28.7324ZM63.5367 28.4612V28.436H62.9367V28.4612H63.5367ZM54.7808 28.7612H63.2367V28.1612H54.7808V28.7612ZM48.7452 32.7195C51.8787 32.7195 54.5678 30.9475 55.0744 28.5225L54.4871 28.3998C54.0578 30.455 51.7001 32.1195 48.7452 32.1195V32.7195ZM42.4183 28.5222C42.9222 30.9475 45.6118 32.7195 48.7452 32.7195V32.1195C45.79 32.1195 43.4327 30.4549 43.0058 28.4001L42.4183 28.5222ZM20.323 28.7612H42.712V28.1612H20.323V28.7612ZM14.2873 32.7195C17.4208 32.7195 20.11 30.9475 20.6166 28.5225L20.0293 28.3998C19.5999 30.455 17.2423 32.1195 14.2873 32.1195V32.7195ZM7.95799 28.5222C8.46195 30.9456 11.154 32.7195 14.2873 32.7195V32.1195C11.3322 32.1195 8.97234 30.453 8.54542 28.4001L7.95799 28.5222ZM3.33818 28.7612H8.2517V28.1612H3.33818V28.7612ZM2.37519 28.7631L3.33878 28.7612L3.33757 28.1612L2.37398 28.1631L2.37519 28.7631ZM0.461905 27.2242C0.461905 27.678 0.702687 28.0691 1.05138 28.3373C1.3999 28.6053 1.86868 28.7631 2.37459 28.7631V28.1631C1.98988 28.1631 1.65232 28.0425 1.41715 27.8617C1.18215 27.681 1.0619 27.4526 1.0619 27.2242H0.461905ZM0.461905 26.2365V27.2242H1.0619V26.2365H0.461905ZM2.37459 24.6976C1.87004 24.6976 1.40136 24.8548 1.05257 25.1225C0.703525 25.3904 0.461905 25.7815 0.461905 26.2365H1.0619C1.0619 26.0073 1.18257 25.7791 1.41785 25.5985C1.65336 25.4178 1.99102 25.2976 2.37459 25.2976V24.6976ZM3.33818 24.6976H2.37459V25.2976H3.33818V24.6976ZM3.03818 13.8668V24.9976H3.63818V13.8668H3.03818ZM11.3916 7.37992C9.11077 7.37992 7.03186 8.09237 5.51693 9.25618C4.0018 10.4201 3.03818 12.0483 3.03818 13.8668H3.63818C3.63818 12.2739 4.481 10.8086 5.88245 9.73199C7.2841 8.65521 9.2319 7.97992 11.3916 7.97992V7.37992ZM18.8233 7.37605L11.3914 7.37992L11.3918 7.97992L18.8237 7.97605L18.8233 7.37605ZM18.5235 5.70268V7.67605H19.1235V5.70268H18.5235ZM2.14938 2.74957C2.69381 3.16781 3.52581 3.53705 4.56374 3.86695C5.60773 4.19877 6.88466 4.49826 8.33766 4.76606C11.2441 5.30174 14.8762 5.71444 18.8016 6.00187L18.8454 5.40348C14.9319 5.11691 11.3234 4.70625 8.44642 4.176C7.00773 3.91083 5.75725 3.61672 4.74549 3.29513C3.72768 2.97163 2.97558 2.62766 2.51491 2.27376L2.14938 2.74957ZM1.91063 1.47491C1.6134 1.9111 1.74044 2.43808 2.15036 2.75032L2.51393 2.27301C2.32507 2.12916 2.31121 1.95256 2.40646 1.81279L1.91063 1.47491ZM3.22632 0.960145C2.7222 0.890153 2.18538 1.07443 1.91117 1.47414L2.40593 1.81357C2.5242 1.64116 2.81265 1.50847 3.14381 1.55444L3.22632 0.960145ZM28.4647 1.95653C19.5588 1.95653 9.61214 1.8381 3.22592 0.96009L3.1442 1.5545C9.5788 2.43916 19.5687 2.55653 28.4647 2.55653V1.95653ZM34.0013 1.94686C32.2152 1.95266 30.3563 1.95653 28.4647 1.95653V2.55653C30.3571 2.55653 32.2167 2.55266 34.0032 2.54686L34.0013 1.94686ZM35.3506 1.94341C34.9059 1.9446 34.4561 1.9458 34.0015 1.94686L34.0029 2.54686C34.4576 2.5458 34.9075 2.5446 35.3522 2.5434L35.3506 1.94341ZM35.3502 1.94341L35.3502 1.94341L35.3525 2.5434L35.3526 2.5434L35.3502 1.94341ZM38.7623 1.9372C37.668 1.9372 36.5275 1.94025 35.3506 1.94341L35.3522 2.5434C36.5292 2.54025 37.669 2.5372 38.7623 2.5372V1.9372ZM47.0547 1.93913L38.7623 1.9372L38.7622 2.5372L47.0546 2.53913L47.0547 1.93913ZM47.0572 1.93913H47.0546V2.53913H47.0572V1.93913ZM60.599 1.7422C56.1214 1.91014 52.669 1.93913 47.0572 1.93913V2.53913C52.6715 2.53913 56.1326 2.51014 60.6215 2.34178L60.599 1.7422ZM61.8675 2.47444C61.6846 1.98402 61.1247 1.7261 60.6011 1.74213L60.6195 2.34185C60.9815 2.33076 61.2417 2.51353 61.3053 2.68413L61.8675 2.47444ZM61.2498 3.70714C61.7405 3.49559 62.0627 2.99768 61.8675 2.47444L61.3053 2.68412C61.3567 2.82193 61.3016 3.03142 61.0123 3.15618L61.2498 3.70714ZM58.799 4.49958C59.762 4.25752 60.5836 3.99393 61.2497 3.70721L61.0124 3.1561C60.3854 3.42603 59.5967 3.68041 58.6527 3.91768L58.799 4.49958ZM59.0258 5.71042V4.20863H58.4258V5.71042H59.0258ZM57.594 7.53827C58.4511 7.20585 59.0258 6.53736 59.0258 5.71042H58.4258C58.4258 6.221 58.0747 6.70827 57.377 6.97888L57.594 7.53827ZM56.4641 7.74992C56.8457 7.74992 57.2296 7.67933 57.5938 7.53835L57.3772 6.9788C57.0823 7.09294 56.7719 7.14992 56.4641 7.14992V7.74992ZM54.9793 7.36443C55.4302 7.62205 55.9475 7.74992 56.4641 7.74992V7.14992C56.0448 7.14992 55.6312 7.04585 55.277 6.84347L54.9793 7.36443ZM51.8625 5.5884L54.9796 7.36461L55.2767 6.8433L52.1595 5.0671L51.8625 5.5884ZM37.4797 6.45494C43.1364 6.35433 48.0622 6.07179 52.0444 5.62589L51.9776 5.02961C48.0197 5.47281 43.1137 5.75464 37.469 5.85504L37.4797 6.45494ZM37.7744 7.68187V6.15499H37.1744V7.68187H37.7744ZM44.2344 7.37994L37.4743 7.38187L37.4745 7.98187L44.2346 7.97994L44.2344 7.37994ZM55.8559 10.3896C52.6178 8.5003 48.5927 7.37994 44.2345 7.37994V7.97994C48.4914 7.97994 52.4114 9.07456 55.5535 10.9078L55.8559 10.3896ZM56.1232 10.5499L55.8591 10.3914L55.5504 10.9059L55.8146 11.0644L56.1232 10.5499ZM62.24 16.9136C60.9704 14.3793 58.8339 12.1886 56.1241 10.5504L55.8137 11.0639C58.4426 12.6532 60.4925 14.7649 61.7036 17.1824L62.24 16.9136ZM62.2308 16.8959L62.2232 16.8843L61.7204 17.2117L61.7279 17.2232L62.2308 16.8959ZM62.2614 16.9507L62.2438 16.9179L61.7149 17.2013L61.7325 17.2341L62.2614 16.9507ZM62.3198 17.0691C62.3004 17.031 62.2843 16.9993 62.2698 16.9677L61.7241 17.2172C61.7448 17.2625 61.7668 17.3055 61.7853 17.3417L62.3198 17.0691ZM62.3716 17.1735C62.3541 17.1363 62.3357 17.1003 62.3198 17.0691L61.7853 17.3417C61.8019 17.3743 61.8159 17.4017 61.8286 17.4288L62.3716 17.1735ZM62.7532 17.934L62.3683 17.1667L61.832 17.4357L62.2169 18.203L62.7532 17.934ZM62.4297 18.3685H62.485V17.7685H62.4297V18.3685ZM63.5373 22.2762C63.5373 20.7755 63.2452 19.3255 62.709 17.9589L62.1504 18.1781C62.6608 19.4787 62.9373 20.8545 62.9373 22.2762H63.5373ZM59.6069 16.286H45.5256V16.886H59.6069V16.286ZM59.6072 16.286H59.6069V16.886H59.6072V16.286ZM54.871 12.3867C56.7723 13.5834 58.2983 15.0739 59.3535 16.7461L59.8609 16.4258C58.7524 14.6693 57.1586 13.1176 55.1906 11.8789L54.871 12.3867ZM45.5256 12.4328H55.0308V11.8328H45.5256V12.4328ZM45.5036 12.3802C45.5036 12.4039 45.4968 12.4221 45.4907 12.4328C45.4851 12.4428 45.4806 12.4457 45.4823 12.4444C45.4837 12.4433 45.4885 12.4401 45.4969 12.4373C45.5051 12.4346 45.5149 12.4328 45.5256 12.4328V11.8328C45.3752 11.8328 45.2299 11.8817 45.1167 11.9686C45.005 12.0544 44.9036 12.1967 44.9036 12.3802H45.5036ZM45.5036 16.3386V12.3802H44.9036V16.3386H45.5036ZM45.5256 16.286C45.5149 16.286 45.5051 16.2842 45.4969 16.2814C45.4885 16.2786 45.4837 16.2755 45.4823 16.2744C45.4806 16.2731 45.4851 16.276 45.4907 16.286C45.4968 16.2967 45.5036 16.3149 45.5036 16.3386H44.9036C44.9036 16.5221 45.005 16.6643 45.1167 16.7502C45.2299 16.8371 45.3752 16.886 45.5256 16.886V16.286ZM56.7256 6.21275C56.8185 6.17706 56.9142 6.12085 56.9869 6.02995C57.0633 5.93443 57.0966 5.82254 57.0966 5.71043H56.4966C56.4966 5.70755 56.4971 5.69905 56.501 5.6873C56.505 5.67518 56.5112 5.66406 56.5183 5.65521C56.5319 5.63825 56.5383 5.64195 56.5104 5.65265L56.7256 6.21275ZM56.132 6.16995C56.321 6.27803 56.5236 6.29033 56.7256 6.21275L56.5104 5.65265C56.484 5.66281 56.4706 5.66277 56.4655 5.66241C56.4607 5.66208 56.45 5.66065 56.4297 5.64906L56.132 6.16995ZM54.5123 5.2483L56.1325 6.17025L56.4292 5.64876L54.809 4.72682L54.5123 5.2483ZM56.7409 4.33522C56.0809 4.46006 55.3729 4.57923 54.6168 4.69077L54.7044 5.28435C55.468 5.1717 56.184 5.0512 56.8524 4.92477L56.7409 4.33522ZM57.0966 5.71043L57.0966 4.63L56.4966 4.62999L56.4966 5.71043L57.0966 5.71043ZM32.7616 4.03607L32.7619 4.03607L32.7601 3.43607L32.7599 3.43607L32.7616 4.03607ZM28.4679 4.04284C29.9255 4.04284 31.3621 4.03941 32.7615 4.03607L32.7601 3.43607C31.3606 3.43941 29.9246 3.44284 28.4679 3.44284V4.04284ZM28.4474 3.44355L28.4468 3.44359L28.4891 4.0421L28.4897 4.04205L28.4474 3.44355ZM11.1643 3.72352C16.5838 3.99257 22.7492 4.0428 28.4685 4.0428V3.4428C22.7505 3.4428 16.5978 3.39253 11.194 3.12426L11.1643 3.72352ZM32.6447 4.41114C23.8623 4.41114 16.4022 3.87825 11.2222 3.127L11.1361 3.72079C16.3514 4.47716 23.8413 5.01114 32.6447 5.01114V4.41114ZM52.8854 3.41036C47.7721 4.04805 40.718 4.41114 32.6447 4.41114V5.01114C40.7322 5.01114 47.8131 4.64759 52.9596 4.00575L52.8854 3.41036ZM47.0604 4.02931C49.2849 4.02931 51.1753 4.02351 52.9251 4.00804L52.9198 3.40806C51.1725 3.42351 49.284 3.42931 47.0604 3.42931V4.02931ZM47.0579 4.02931H47.0604V3.42931H47.0579V4.02931ZM38.7628 4.02351L47.0577 4.02931L47.0581 3.42931L38.7632 3.42351L38.7628 4.02351ZM34.0115 4.03318C35.6668 4.02738 37.259 4.02351 38.763 4.02351V3.42351C37.258 3.42351 35.665 3.42738 34.0094 3.43318L34.0115 4.03318ZM32.7617 4.03607L34.0111 4.03318L34.0098 3.43318L32.7603 3.43607L32.7617 4.03607ZM32.6441 5.89555C28.7302 5.89555 24.6455 5.77397 20.7749 5.53662L20.7381 6.1355C24.6214 6.37361 28.7184 6.49555 32.6441 6.49555V5.89555ZM35.5393 5.88011C34.5916 5.88976 33.6266 5.89555 32.6441 5.89555V6.49555C33.6289 6.49555 34.5961 6.48975 35.5454 6.48008L35.5393 5.88011ZM35.8424 7.6799V6.18009H35.2424V7.6799H35.8424ZM20.7565 7.9799H35.5424V7.3799H20.7565V7.9799ZM20.4565 5.83606V7.6799H21.0565V5.83606H20.4565ZM14.2881 30.6354C13.1938 30.6354 12.2128 30.2934 11.5116 29.7547C10.8106 29.2162 10.4017 28.4936 10.4017 27.7192H9.80169C9.80169 28.7191 10.3312 29.6046 11.1461 30.2305C11.9607 30.8563 13.0729 31.2354 14.2881 31.2354V30.6354ZM18.1746 27.7192C18.1746 28.4936 17.7657 29.2162 17.0647 29.7547C16.3635 30.2934 15.3824 30.6354 14.2881 30.6354V31.2354C15.5034 31.2354 16.6156 30.8563 17.4302 30.2305C18.245 29.6046 18.7746 28.7191 18.7746 27.7192H18.1746ZM14.2881 24.8031C15.3824 24.8031 16.3635 25.145 17.0647 25.6837C17.7657 26.2222 18.1746 26.9448 18.1746 27.7192H18.7746C18.7746 26.7194 18.245 25.8339 17.4302 25.2079C16.6156 24.5821 15.5034 24.2031 14.2881 24.2031V24.8031ZM10.4017 27.7192C10.4017 26.9448 10.8106 26.2222 11.5116 25.6837C12.2128 25.145 13.1938 24.8031 14.2881 24.8031V24.2031C13.0729 24.2031 11.9607 24.5821 11.1461 25.2079C10.3312 25.8339 9.80169 26.7194 9.80169 27.7192H10.4017ZM44.2593 27.7192C44.2593 28.7191 44.7888 29.6046 45.6037 30.2305C46.4183 30.8563 47.5305 31.2354 48.7458 31.2354V30.6354C47.6515 30.6354 46.6704 30.2934 45.9692 29.7547C45.2682 29.2162 44.8593 28.4936 44.8593 27.7192H44.2593ZM48.7458 24.2031C47.5305 24.2031 46.4183 24.5821 45.6037 25.2079C44.7888 25.8339 44.2593 26.7194 44.2593 27.7192H44.8593C44.8593 26.9448 45.2682 26.2222 45.9692 25.6837C46.6704 25.145 47.6515 24.8031 48.7458 24.8031V24.2031ZM53.2322 27.7192C53.2322 26.7194 52.7027 25.8339 51.8878 25.2079C51.0732 24.5821 49.961 24.2031 48.7458 24.2031V24.8031C49.84 24.8031 50.8211 25.145 51.5223 25.6837C52.2233 26.2222 52.6322 26.9448 52.6322 27.7192H53.2322ZM48.7458 31.2354C49.961 31.2354 51.0732 30.8563 51.8878 30.2305C52.7027 29.6046 53.2322 28.7191 53.2322 27.7192H52.6322C52.6322 28.4936 52.2233 29.2162 51.5223 29.7547C50.8211 30.2934 49.84 30.6354 48.7458 30.6354V31.2354ZM55.0751 26.916C54.5712 24.4905 51.879 22.7187 48.7458 22.7187V23.3187C51.7011 23.3187 54.0607 24.9834 54.4877 27.0381L55.0751 26.916ZM62.5932 26.677H54.7814V27.277H62.5932V26.677ZM62.2932 26.4822V26.977H62.8932V26.4822H62.2932ZM56.7965 26.7822H62.5932V26.1822H56.7965V26.7822ZM56.4965 24.9979V26.4822H57.0965V24.9979H56.4965ZM61.305 24.6979H56.7965V25.2979H61.305V24.6979ZM61.005 22.2784V24.9979H61.605V22.2784H61.005ZM60.1249 18.1919C60.6929 19.4785 61.005 20.8502 61.005 22.2784H61.605C61.605 20.761 61.2731 19.3071 60.6738 17.9496L60.1249 18.1919ZM45.5252 18.3708H60.3993V17.7708H45.5252V18.3708ZM42.971 16.339C42.971 16.9292 43.2843 17.4436 43.7493 17.8008C44.2141 18.1579 44.8432 18.3708 45.5252 18.3708V17.7708C44.9644 17.7708 44.4664 17.5951 44.1148 17.325C43.7634 17.0551 43.571 16.7036 43.571 16.339H42.971ZM42.971 12.3807V16.339H43.571V12.3807H42.971ZM45.5252 10.3489C44.8432 10.3489 44.2141 10.5617 43.7493 10.9188C43.2843 11.2761 42.971 11.7904 42.971 12.3807H43.571C43.571 12.0161 43.7634 11.6646 44.1148 11.3946C44.4664 11.1245 44.9644 10.9489 45.5252 10.9489V10.3489ZM52.1095 10.3489H45.5252V10.9489H52.1095V10.3489ZM44.2345 9.46452C47.0347 9.46452 49.6762 9.99661 51.9979 10.9274L52.2212 10.3704C49.8275 9.41087 47.1102 8.86452 44.2345 8.86452V9.46452ZM11.3922 9.46452H44.2345V8.86452H11.3922V9.46452ZM5.57106 13.867C5.57106 12.6838 6.19689 11.5896 7.24831 10.7817C8.29991 9.97357 9.76463 9.46452 11.3922 9.46452V8.86452C9.64346 8.86452 8.04761 9.41076 6.88271 10.3059C5.71764 11.2012 4.97106 12.4582 4.97106 13.867H5.57106ZM5.57106 16.5864V13.867H4.97106V16.5864H5.57106ZM14.9772 16.2864H5.27106V16.8864H14.9772V16.2864ZM15.2772 18.0708V16.5864H14.6772V18.0708H15.2772ZM5.27106 18.3708H14.9772V17.7708H5.27106V18.3708ZM5.57106 24.9979V18.0708H4.97106V24.9979H5.57106ZM6.55919 24.6979H5.27106V25.2979H6.55919V24.6979ZM6.85919 26.4822V24.9979H6.25919V26.4822H6.85919ZM2.69479 26.7822H6.55919V26.1822H2.69479V26.7822ZM2.99479 26.977V26.4822H2.39479V26.977H2.99479ZM8.25238 26.677H2.69479V27.277H8.25238V26.677ZM14.288 22.7187C11.1545 22.7187 8.46533 24.4907 7.95872 26.9157L8.54604 27.0384C8.97539 24.9832 11.333 23.3187 14.288 23.3187V22.7187ZM20.6174 26.916C20.1134 24.4905 17.4212 22.7187 14.288 22.7187V23.3187C17.2433 23.3187 19.603 24.9834 20.0299 27.0381L20.6174 26.916ZM42.7101 26.677H20.3236V27.277H42.7101V26.677ZM48.7458 22.7187C45.6123 22.7187 42.9231 24.4907 42.4165 26.9157L43.0038 27.0384C43.4332 24.9832 45.7908 23.3187 48.7458 23.3187V22.7187Z" fill="#222532"/>
<path fill-rule="evenodd" clip-rule="evenodd" d="M29.7458 12.3802V16.3385C29.7458 17.2933 28.7344 18.0703 27.4915 18.0703H21.0508C19.808 18.0703 18.7966 17.2933 18.7966 16.3385V12.3802C18.7966 11.4254 19.808 10.6484 21.0508 10.6484H27.4915C28.7344 10.6484 29.7458 11.4254 29.7458 12.3802ZM20.7288 12.3802V16.3385C20.7288 16.4738 20.8773 16.5859 21.0508 16.5859H27.4915C27.6651 16.5859 27.8136 16.4719 27.8136 16.3385V12.3802C27.8136 12.2468 27.6651 12.1328 27.4915 12.1328H21.0508C20.8773 12.1328 20.7288 12.2468 20.7288 12.3802Z" fill="white"/>
<path d="M30.0458 16.3385V12.3802H29.4458V16.3385H30.0458ZM27.4915 18.3703C28.1735 18.3703 28.8026 18.1575 29.2675 17.8004C29.7325 17.4431 30.0458 16.9288 30.0458 16.3385H29.4458C29.4458 16.7031 29.2533 17.0546 28.9019 17.3246C28.5504 17.5947 28.0524 17.7703 27.4915 17.7703V18.3703ZM21.0508 18.3703H27.4915V17.7703H21.0508V18.3703ZM18.4966 16.3385C18.4966 16.9288 18.8099 17.4431 19.2749 17.8004C19.7397 18.1575 20.3688 18.3703 21.0508 18.3703V17.7703C20.49 17.7703 19.992 17.5947 19.6404 17.3246C19.289 17.0546 19.0966 16.7031 19.0966 16.3385H18.4966ZM18.4966 12.3802V16.3385H19.0966V12.3802H18.4966ZM21.0508 10.3484C20.3688 10.3484 19.7397 10.5613 19.2749 10.9184C18.8099 11.2756 18.4966 11.79 18.4966 12.3802H19.0966C19.0966 12.0156 19.289 11.6641 19.6404 11.3942C19.992 11.1241 20.49 10.9484 21.0508 10.9484V10.3484ZM27.4915 10.3484H21.0508V10.9484H27.4915V10.3484ZM30.0458 12.3802C30.0458 11.79 29.7325 11.2756 29.2675 10.9184C28.8026 10.5613 28.1735 10.3484 27.4915 10.3484V10.9484C28.0524 10.9484 28.5504 11.1241 28.9019 11.3942C29.2533 11.6641 29.4458 12.0156 29.4458 12.3802H30.0458ZM21.0288 16.3385V12.3802H20.4288V16.3385H21.0288ZM21.0508 16.2859C21.0396 16.2859 21.0294 16.2841 21.0211 16.2814C21.0127 16.2786 21.0081 16.2755 21.0069 16.2746C21.0056 16.2736 21.0103 16.2768 21.0161 16.2871C21.0224 16.2982 21.0288 16.3161 21.0288 16.3385H20.4288C20.4288 16.5223 20.5295 16.665 20.6426 16.7514C20.7564 16.8383 20.9017 16.8859 21.0508 16.8859V16.2859ZM27.4915 16.2859H21.0508V16.8859H27.4915V16.2859ZM27.5136 16.3385C27.5136 16.3149 27.5204 16.2967 27.5264 16.2859C27.5321 16.2759 27.5365 16.2731 27.5349 16.2743C27.5334 16.2755 27.5286 16.2786 27.5202 16.2814C27.512 16.2842 27.5022 16.2859 27.4915 16.2859V16.8859C27.6419 16.8859 27.7872 16.8371 27.9004 16.7502C28.0121 16.6643 28.1136 16.5221 28.1136 16.3385H27.5136ZM27.5136 12.3802V16.3385H28.1136V12.3802H27.5136ZM27.4915 12.4328C27.5022 12.4328 27.512 12.4346 27.5202 12.4373C27.5286 12.4401 27.5334 12.4433 27.5349 12.4444C27.5365 12.4457 27.5321 12.4428 27.5264 12.4328C27.5204 12.4221 27.5136 12.4038 27.5136 12.3802H28.1136C28.1136 12.1967 28.0121 12.0544 27.9004 11.9686C27.7872 11.8817 27.6419 11.8328 27.4915 11.8328V12.4328ZM21.0508 12.4328H27.4915V11.8328H21.0508V12.4328ZM21.0288 12.3802C21.0288 12.4038 21.022 12.4221 21.0159 12.4328C21.0103 12.4428 21.0058 12.4457 21.0075 12.4444C21.009 12.4433 21.0138 12.4401 21.0222 12.4373C21.0303 12.4346 21.0402 12.4328 21.0508 12.4328V11.8328C20.9004 11.8328 20.7551 11.8817 20.642 11.9686C20.5303 12.0544 20.4288 12.1967 20.4288 12.3802H21.0288Z" fill="#222532"/>
<path fill-rule="evenodd" clip-rule="evenodd" d="M33.2881 10.6484H39.7288C40.9717 10.6484 41.983 11.4254 41.983 12.3802V16.3385C41.983 17.2933 40.9717 18.0703 39.7288 18.0703H33.2881C32.0453 18.0703 31.0339 17.2933 31.0339 16.3385V12.3802C31.0339 11.4254 32.0453 10.6484 33.2881 10.6484ZM39.7288 16.5859C39.9024 16.5859 40.0508 16.4719 40.0508 16.3385V12.3802C40.0508 12.2468 39.9024 12.1328 39.7288 12.1328H33.2881C33.1145 12.1328 32.9661 12.2468 32.9661 12.3802V16.3385C32.9661 16.4719 33.1145 16.5859 33.2881 16.5859H39.7288Z" fill="white"/>
<path d="M39.7288 10.3484H33.2881V10.9484H39.7288V10.3484ZM42.283 12.3802C42.283 11.79 41.9698 11.2756 41.5048 10.9184C41.0399 10.5613 40.4108 10.3484 39.7288 10.3484V10.9484C40.2897 10.9484 40.7877 11.1241 41.1392 11.3942C41.4906 11.6641 41.683 12.0156 41.683 12.3802H42.283ZM42.283 16.3385V12.3802H41.683V16.3385H42.283ZM39.7288 18.3703C40.4108 18.3703 41.0399 18.1575 41.5048 17.8004C41.9698 17.4431 42.283 16.9288 42.283 16.3385H41.683C41.683 16.7031 41.4906 17.0546 41.1392 17.3246C40.7877 17.5947 40.2897 17.7703 39.7288 17.7703V18.3703ZM33.2881 18.3703H39.7288V17.7703H33.2881V18.3703ZM30.7339 16.3385C30.7339 16.9288 31.0472 17.4431 31.5122 17.8004C31.977 18.1575 32.6061 18.3703 33.2881 18.3703V17.7703C32.7273 17.7703 32.2293 17.5947 31.8777 17.3246C31.5263 17.0546 31.3339 16.7031 31.3339 16.3385H30.7339ZM30.7339 12.3802V16.3385H31.3339V12.3802H30.7339ZM33.2881 10.3484C32.6061 10.3484 31.977 10.5613 31.5122 10.9184C31.0472 11.2756 30.7339 11.79 30.7339 12.3802H31.3339C31.3339 12.0156 31.5263 11.6641 31.8777 11.3942C32.2293 11.1241 32.7273 10.9484 33.2881 10.9484V10.3484ZM39.7508 16.3385C39.7508 16.3149 39.7577 16.2967 39.7637 16.2859C39.7694 16.2759 39.7738 16.2731 39.7722 16.2743C39.7707 16.2755 39.7659 16.2786 39.7575 16.2814C39.7493 16.2842 39.7395 16.2859 39.7288 16.2859V16.8859C39.8792 16.8859 40.0245 16.8371 40.1377 16.7502C40.2494 16.6643 40.3508 16.5221 40.3508 16.3385H39.7508ZM39.7508 12.3802V16.3385H40.3508V12.3802H39.7508ZM39.7288 12.4328C39.7395 12.4328 39.7493 12.4346 39.7575 12.4373C39.7659 12.4401 39.7707 12.4433 39.7722 12.4444C39.7738 12.4457 39.7694 12.4428 39.7637 12.4328C39.7577 12.4221 39.7508 12.4038 39.7508 12.3802H40.3508C40.3508 12.1967 40.2494 12.0544 40.1377 11.9686C40.0245 11.8817 39.8792 11.8328 39.7288 11.8328V12.4328ZM33.2881 12.4328H39.7288V11.8328H33.2881V12.4328ZM33.2661 12.3802C33.2661 12.4038 33.2593 12.4221 33.2532 12.4328C33.2476 12.4428 33.2431 12.4457 33.2448 12.4444C33.2463 12.4433 33.2511 12.4401 33.2594 12.4373C33.2676 12.4346 33.2774 12.4328 33.2881 12.4328V11.8328C33.1377 11.8328 32.9924 11.8817 32.8793 11.9686C32.7675 12.0544 32.6661 12.1967 32.6661 12.3802H33.2661ZM33.2661 16.3385V12.3802H32.6661V16.3385H33.2661ZM33.2881 16.2859C33.2774 16.2859 33.2676 16.2842 33.2594 16.2814C33.2511 16.2786 33.2463 16.2755 33.2448 16.2743C33.2431 16.2731 33.2476 16.2759 33.2532 16.2859C33.2593 16.2967 33.2661 16.3149 33.2661 16.3385H32.6661C32.6661 16.5221 32.7675 16.6643 32.8793 16.7502C32.9924 16.8371 33.1377 16.8859 33.2881 16.8859V16.2859ZM39.7288 16.2859H33.2881V16.8859H39.7288V16.2859Z" fill="#222532"/>
<path fill-rule="evenodd" clip-rule="evenodd" d="M46.1695 27.7188C46.1695 26.6268 47.3243 25.7396 48.7458 25.7396C50.1672 25.7396 51.322 26.6287 51.322 27.7188C51.322 28.8108 50.1672 29.698 48.7458 29.698C47.3243 29.698 46.1695 28.8108 46.1695 27.7188ZM48.1017 27.7188C48.1017 27.9913 48.391 28.2136 48.7458 28.2136C49.1005 28.2136 49.3898 27.9913 49.3898 27.7188C49.3898 27.4463 49.1005 27.224 48.7458 27.224C48.391 27.224 48.1017 27.4463 48.1017 27.7188Z" fill="white"/>
<path d="M48.7458 25.4396C47.9746 25.4396 47.2649 25.6799 46.7418 26.0818C46.2185 26.4838 45.8695 27.0601 45.8695 27.7188H46.4695C46.4695 27.2855 46.6979 26.8721 47.1073 26.5576C47.517 26.2429 48.0955 26.0396 48.7458 26.0396V25.4396ZM51.622 27.7188C51.622 27.061 51.273 26.4848 50.7498 26.0826C50.2268 25.6805 49.5171 25.4396 48.7458 25.4396V26.0396C49.3959 26.0396 49.9743 26.2433 50.3841 26.5583C50.7937 26.8732 51.022 27.2865 51.022 27.7188H51.622ZM48.7458 29.998C49.517 29.998 50.2266 29.7576 50.7497 29.3558C51.273 28.9537 51.622 28.3775 51.622 27.7188H51.022C51.022 28.1521 50.7936 28.5654 50.3842 28.88C49.9745 29.1947 49.396 29.398 48.7458 29.398V29.998ZM45.8695 27.7188C45.8695 28.3775 46.2185 28.9537 46.7418 29.3558C47.2649 29.7576 47.9746 29.998 48.7458 29.998V29.398C48.0955 29.398 47.517 29.1947 47.1073 28.88C46.6979 28.5654 46.4695 28.1521 46.4695 27.7188H45.8695ZM48.7458 27.9136C48.6291 27.9136 48.5336 27.8767 48.4735 27.8305C48.4134 27.7844 48.4017 27.742 48.4017 27.7188H47.8017C47.8017 27.9681 47.9346 28.1731 48.1079 28.3063C48.2811 28.4393 48.5077 28.5136 48.7458 28.5136V27.9136ZM49.0898 27.7188C49.0898 27.742 49.0781 27.7844 49.0181 27.8305C48.9579 27.8767 48.8624 27.9136 48.7458 27.9136V28.5136C48.9838 28.5136 49.2104 28.4393 49.3836 28.3063C49.5569 28.1731 49.6898 27.9681 49.6898 27.7188H49.0898ZM48.7458 27.524C48.8624 27.524 48.9579 27.5609 49.0181 27.6071C49.0781 27.6532 49.0898 27.6955 49.0898 27.7188H49.6898C49.6898 27.4695 49.5569 27.2644 49.3836 27.1313C49.2104 26.9982 48.9838 26.924 48.7458 26.924V27.524ZM48.4017 27.7188C48.4017 27.6955 48.4134 27.6532 48.4735 27.6071C48.5336 27.5609 48.6291 27.524 48.7458 27.524V26.924C48.5077 26.924 48.2811 26.9982 48.1079 27.1313C47.9346 27.2644 47.8017 27.4695 47.8017 27.7188H48.4017Z" fill="#222532"/>
<path fill-rule="evenodd" clip-rule="evenodd" d="M11.7119 27.7188C11.7119 26.6268 12.8667 25.7396 14.2881 25.7396C15.7096 25.7396 16.8644 26.6287 16.8644 27.7188C16.8644 28.8108 15.7096 29.698 14.2881 29.698C12.8667 29.698 11.7119 28.8089 11.7119 27.7188ZM13.6441 27.7188C13.6441 27.9913 13.9334 28.2136 14.2881 28.2136C14.6429 28.2136 14.9322 27.9913 14.9322 27.7188C14.9322 27.4463 14.6429 27.224 14.2881 27.224C13.9334 27.224 13.6441 27.4463 13.6441 27.7188Z" fill="white"/>
<path d="M14.2881 25.4396C13.5169 25.4396 12.8073 25.6799 12.2842 26.0818C11.7609 26.4838 11.4119 27.0601 11.4119 27.7188H12.0119C12.0119 27.2855 12.2403 26.8721 12.6497 26.5576C13.0594 26.2429 13.6379 26.0396 14.2881 26.0396V25.4396ZM17.1644 27.7188C17.1644 27.061 16.8153 26.4848 16.2922 26.0826C15.7691 25.6805 15.0595 25.4396 14.2881 25.4396V26.0396C14.9382 26.0396 15.5167 26.2433 15.9265 26.5583C16.3361 26.8732 16.5644 27.2865 16.5644 27.7188H17.1644ZM14.2881 29.998C15.0593 29.998 15.769 29.7576 16.2921 29.3558C16.8154 28.9537 17.1644 28.3775 17.1644 27.7188H16.5644C16.5644 28.1521 16.336 28.5654 15.9266 28.88C15.5169 29.1947 14.9384 29.398 14.2881 29.398V29.998ZM11.4119 27.7188C11.4119 28.3766 11.7609 28.9528 12.2841 29.355C12.8071 29.7571 13.5168 29.998 14.2881 29.998V29.398C13.638 29.398 13.0596 29.1943 12.6498 28.8793C12.2402 28.5644 12.0119 28.151 12.0119 27.7188H11.4119ZM14.2881 27.9136C14.1715 27.9136 14.076 27.8767 14.0158 27.8305C13.9558 27.7844 13.9441 27.742 13.9441 27.7188H13.3441C13.3441 27.9681 13.477 28.1731 13.6503 28.3063C13.8235 28.4393 14.05 28.5136 14.2881 28.5136V27.9136ZM14.6322 27.7188C14.6322 27.742 14.6205 27.7844 14.5604 27.8305C14.5003 27.8767 14.4048 27.9136 14.2881 27.9136V28.5136C14.5262 28.5136 14.7528 28.4393 14.926 28.3063C15.0993 28.1731 15.2322 27.9681 15.2322 27.7188H14.6322ZM14.2881 27.524C14.4048 27.524 14.5003 27.5609 14.5604 27.6071C14.6205 27.6532 14.6322 27.6955 14.6322 27.7188H15.2322C15.2322 27.4695 15.0993 27.2644 14.926 27.1313C14.7528 26.9982 14.5262 26.924 14.2881 26.924V27.524ZM13.9441 27.7188C13.9441 27.6955 13.9558 27.6532 14.0158 27.6071C14.076 27.5609 14.1715 27.524 14.2881 27.524V26.924C14.05 26.924 13.8235 26.9982 13.6503 27.1313C13.477 27.2644 13.3441 27.4695 13.3441 27.7188H13.9441Z" fill="#222532"/>
<path d="M21.3729 24.9974H41.339V26.4818H21.3729V24.9974Z" fill="white" stroke="#222532" stroke-width="0.6"/>
</svg>
